<?xml version="1.0" standalone="no"?>
<!DOCTYPE svg PUBLIC "-//W3C//DTD SVG 1.1//EN" "http://www.w3.org/Graphics/SVG/1.1/DTD/svg11.dtd">
<svg xmlns="http://www.w3.org/2000/svg">
<metadata>Copyright (C) 2016 by original authors @ fontello.com</metadata>
<defs>
<font id="kallyas" horiz-adv-x="1000" >
<font-face font-family="kallyas" font-weight="400" font-stretch="normal" units-per-em="1000" ascent="850" descent="-150" />
<missing-glyph horiz-adv-x="1000" />
<glyph glyph-name="uniF102-1" unicode="&#xe800;" d="M969 264c12-20 50-96 19-172-17-41-51-75-103-99-2-2-5-3-7-4-25-11-53-20-85-27-11-3-22-4-31-4-24 0-43 7-56 13-15-10-44-23-106-36-14-3-29-4-46-4-65 0-145 22-223 42-69 19-141 38-200 42l-10 1-6 9c-55 81-90 165-106 248-15 81-11 157 12 227 39 115 128 202 251 245 46 16 92 24 137 24 74 0 144-21 209-64 63-41 107-92 132-128 17-24 30-48 39-70 14-32 12-46 9-54-9-24-43-42-108-75-6-4-12-7-19-10 0 0 0 0 0 0-25-44 19-97 37-116 20 4 65 13 109 21 36 6 65 10 87 12 33 3 55 1 63-15 1-2 2-3 2-6z m-378-288c60 12 81 23 88 28 0 2-1 6-1 10l-111-25c-2 0-3 0-5 0-4 0-8 1-11 3-5 3-8 8-9 14l-13 65c-2 11 5 22 16 24l109 23c-5 2-16 6-41 9-21 2-39 2-40 2l-7 0-6 5c-1 1-24 20-42 49-27 41-30 82-9 118 13 23 38 43 69 63 0 0 1 0 1 1 29 18 61 34 92 50 23 11 45 23 62 33 18 11 24 17 25 19 0 5-4 21-19 48-16 30-39 61-64 88-34 37-72 66-113 87-49 25-100 37-153 37-40 0-81-7-123-21-56-20-104-49-143-87-38-37-65-82-82-132-21-63-25-133-11-206 14-75 46-151 94-225 61-6 130-24 198-42 75-20 153-41 212-41 14 0 26 1 37 3z m34 337c-2 10-3 19-3 29-2-1-4-3-7-4z m13-148l-58 150c-16-12-29-23-35-35-26-46 21-95 37-109 8-1 23-1 38-3 7-1 13-2 18-3z m30-87l-28-5 5-24 27 6c-2 9-3 17-4 23z m-64-38l-4 24-26-5 5-24z m37 233l48-123c22 7 60 20 101 37-3 11-5 16-6 17-2 2-13 6-43 6-20 0-37-2-37-2 0 0-1 0-1 0 0 0-1 0-1 0h-1c0 0-1 0-1 0-1 0-1 0-1 0 0 0-1 0-2 0 0 0 0 0 0 1-1 0-1 0-2 0 0 0 0 0 0 0-1 0-1 0-1 1-1 0-1 0-1 0-1 0-1 0-1 0-1 1-1 1-1 1 0 0-1 0-1 1 0 0-1 0-1 0 0 0-1 1-1 1 0 0 0 0 0 0-1 1-25 23-43 53-2 3-3 5-4 7z m72-210c1 0 3 1 5 1 59 13 81 23 88 28-1 9-4 28-7 49 0 1-1 3-1 4-38-16-74-28-95-35 3-11 6-26 10-47z m145-37c33 67 16 122 5 148-9-4-17-8-25-12 0-4 1-9 2-14 4-26 7-51 8-57 1-5 0-11-3-17-7-13-26-31-119-51-2 0-5-1-7-1 0-4 1-8 1-11 10-6 32-16 64-9 28 7 52 15 74 24z m4 194c14 8 26 15 38 23-18-2-45-6-83-13 0 0 0 0 0 0 3-4 7-11 11-26 11 5 22 10 32 15 1 1 2 1 2 1z m88-112c17 43 5 88-7 115-13-10-28-20-44-30 5-10 11-25 15-42 5-23 8-55 0-91 16 14 28 30 36 48z m-458 579c12-2 19-12 18-24-2-11-13-19-24-17-31 5-80 9-134 1-52-8-97-26-133-53-58-43-94-108-107-195-1-11-10-18-20-18-1 0-2 0-3 0-12 2-20 12-18 24 14 98 55 173 123 223 42 31 93 51 151 60 60 9 113 5 147-1z" horiz-adv-x="1000" />

<glyph glyph-name="uniF104-1" unicode="&#xe801;" d="M944 794c44-44 63-107 54-178-9-68-44-136-98-190-64-64-146-101-225-101-49 0-93 15-128 42l-199-198v-50c0-6-2-11-6-15l-247-248c-4-4-10-6-15-6-6 0-11 2-15 6l-59 59c-8 8-8 21 0 29l248 248c4 4 9 6 15 6h50l198 199c-34 43-48 99-40 162 9 69 44 136 99 191 63 63 145 100 224 100 57 0 107-19 144-56z m-864-894l189 189-30 30-189-189z m227 227v30h-30l-8-9 29-29z m607 637c-5 5-10 10-15 14l-43-43 29-30 43 43c-4 6-9 11-14 16z m-117-88l29-30 30 30-30 29z m0-59l-30 29-29-29 29-30z m88 29l-29-29 29-30 30 30z m-74 162l-14-14 29-30 34 34c-15 6-31 9-49 10z m-14-73l-30 29-29-29 29-30z m-97 51c-3-1-6-3-9-4l17-18 30 30-5 4c-11-3-22-7-33-12z m8-81l-29-29 29-30 30 30z m30-147l-30 29-29-29 29-29z m-89-29l-29-30 29-29 30 29z m-59 0l30 29-30 29-29-29z m59 58l30 30-30 29-29-29z m4 173c-11-8-22-16-33-26l29-29 30 30z m-62-55c-10-11-18-22-26-33l25-26 30 30z m-48-71c-6-14-12-28-16-42l5-5 29 30z m-16-169l34 34-29 30-15-15c1-17 4-34 10-49z m34-54c5-5 10-10 16-14l43 43-30 30-43-44c4-5 9-10 14-15z m104-44l14 14-30 30-34-34c16-6 32-9 50-10z m14 73l29-29 30 29-30 30z m96-51c3 1 6 3 9 4l-17 18-29-30 4-4c11 3 22 7 33 12z m-8 81l30 29-30 30-29-30z m59 117l-29-29 29-29 30 29z m-4-172c11 8 22 16 33 26l-29 29-29-30z m62 55c10 11 18 22 26 33l-25 26-29-30z m48 71c7 14 12 28 16 42l-4 4-29-29z m12 105l14 15c-1 17-4 33-9 49l-34-34z m-65-557l13-13c33-33 33-86 0-118-15-16-36-25-59-25-22 0-43 9-59 25l-13 13-145 87c-5 3-9 9-10 15 0 6 2 13 6 17l148 148c4 4 11 6 17 6 6-1 12-5 15-10z m-108-75l18 17-59 59c-8 9-8 22 0 30 8 8 22 8 30 0l59-59 18 18-67 110-109-109z m92-27c16 17 16 43 0 59l-59-59c8-8 18-12 29-12 11 0 22 4 30 12z" horiz-adv-x="1000" />

<glyph glyph-name="uniF108-1" unicode="&#xe802;" d="M872 799c127-79 166-246 87-373-13-22-30-42-49-59-18-56-46-112-85-165-62-85-147-159-252-220-8-5-17-4-24 2-7 5-9 14-6 22 2 8 5 15 8 23-53-46-107-83-159-111-75-38-151-58-225-58-51 0-103 10-153 28-8 3-13 9-14 17-1 8 3 15 9 20 1 0 51 35 107 97 52 57 121 150 153 268 34 127 100 233 191 306 4 40 17 79 39 116 25 40 60 73 101 95 39 21 84 33 129 33 51 0 100-14 143-41z m-133-1c3-39-1-119-52-203-52-83-122-121-159-137 19-33 46-62 80-84 34-21 72-33 111-34-2 39 1 119 53 202 52 83 122 122 158 137-18 33-45 63-80 84-33 21-71 33-111 35z m-81-491c-25 7-49 18-72 32-13 8-24 16-35 26-20-55-42-107-56-140 68 20 121 49 163 82z m-123 383c-38-60-44-131-23-193 10 4 23 10 37 19 29 17 70 49 102 101 33 52 43 103 46 136 2 18 1 32 1 43-28-4-54-13-78-26-35-19-64-46-85-80z m257-463c23 32 43 65 58 99-38-18-79-28-121-28-6 0-11 0-17 0-12-11-25-21-38-31-58-43-129-75-211-94-1 0-3 0-5 0-6 0-12 3-16 8-5 6-6 14-2 21 0 1 43 95 78 197-33 41-53 90-58 142-27-25-51-54-72-85-35-51-61-111-79-176-15-57-39-112-71-165-26-42-56-83-92-122-31-34-60-60-81-78 34-9 68-13 102-13 67 0 137 18 206 54 68 35 137 88 207 157 6 6 15 8 23 4 8-3 13-11 12-20 0-14-5-30-11-47 77 52 140 111 188 177z m132 221c37 60 43 130 23 193-10-4-23-11-38-20-28-17-69-49-101-101-46-74-49-145-47-178 27 4 54 12 78 26 35 18 64 46 85 80z" horiz-adv-x="1000" />

<glyph glyph-name="uniF107-1" unicode="&#xe803;" d="M843 473c15-49 31-125 20-211-9-74-37-144-82-207-45-63-107-120-186-170 0 0 0 0 0 0-16-10-31-19-48-28-8-5-19-7-32-7-48 0-120 32-172 62-33 20-114 71-143 129-31 62-61 315-65 343 0 1 0 1 0 2 0 2-4 70-1 146 2 45 6 83 11 114 8 42 20 69 35 85 46 43 101 76 164 97 62 20 111 22 129 22 8 0 20 0 28-2 18-4 27-12 33-17 0 0 0 0 0 0 2-1 3-2 5-3h0 0c50 0 69-27 80-44 2-3 5-7 7-9 49-6 61-41 68-62 3-10 5-17 8-17 2-1 4-2 6-2 1 0 1 0 1 0 24-9 47-32 66-71 12-22 19-44 22-53 6-8 15-23 25-43 0 0 0 0 0 0 7-15 14-34 21-54z m-210 257l-54-295c16-9 30-20 43-33l56 259c-14 9-20 26-24 38-5 15-8 26-21 31z m-8-442c0 35-14 67-38 89-10-17-24-48-24-89 0-41 14-72 24-89 24 22 38 54 38 89z m-82 498c-5-42-18-132-38-222-9-42-19-79-29-111 8 1 16 2 24 2 14 0 27-2 40-5l54 298c-4 4-7 9-10 13-9 13-17 24-41 25z m10-611c-14 22-32 61-32 113s18 91 32 113c-16 8-34 12-53 12-19 0-37-4-53-12 14-22 32-61 32-113 0-52-18-91-32-113 16-8 34-12 53-12 19 0 37 4 53 12z m-116 631l-2-69 60 7c4 26 6 46 8 58-3 2-6 4-12 5-1 1-7 1-18 1-7 0-19 0-36-2z m-4-111l-1-56 46 5c4 20 7 39 10 58z m-3-98l-1-42 32 3c1 5 2 10 3 15 2 9 4 19 6 28z m-3-84l-2-76c0 0 1 0 1 0 8 21 16 47 24 78z m11-225c0 41-14 72-25 89-23-22-38-54-38-89 0-35 15-67 38-90 11 18 25 49 25 90z m-50 304l-19-2 1-41 17 1z m-21 40l23 2 2 55-27-3z m19-124l-14-1 4-108c2 2 4 4 6 7z m9 291c-10-3-22-6-34-9l3-62 29 3z m-63-354l-2 57-12-1c5-21 9-39 14-56z m-3 99l-2 42-27-3c1-7 3-14 4-21 1-7 3-14 4-20z m-3 84l-2 53-41-5c3-16 6-34 9-52z m-6 146c-17-7-33-16-49-25 2-8 3-19 5-32l46 6z m207-880c1 0 2 0 2 1-67 21-141 59-220 114-29 19-53 38-73 54 0-1 1-3 1-4 17-32 64-74 127-111 58-34 119-56 151-56 8 0 11 1 12 2z m293 357c16 99-7 187-29 241-4-6-9-15-15-30-15-43-26-112-31-206 0-11-9-19-20-19h-2c-11 0-20 10-19 22 5 88 14 156 29 203 10 35 23 58 40 70-4 7-7 11-9 13-3 3-4 6-5 9-1 0-8 25-21 51-7 14-15 25-22 34l-62-286c8-20 13-42 13-65 0-92-75-167-167-167-92 0-167 75-167 167 0 14 2 28 6 41-12 13-23 35-35 67-13 36-26 86-39 148-14 69-26 139-32 178-8-7-16-14-24-21-8-8-28-41-33-170-3-71 0-136 1-142 6-54 22-174 39-255 26-24 200-174 363-209 68 43 122 92 162 146 41 55 68 116 79 180z" horiz-adv-x="1000" />

<glyph glyph-name="uniF101-1" unicode="&#xe804;" d="M979 371c12 0 21-9 21-21 0-11-9-21-21-21h-84c-5-98-45-189-115-259-70-70-161-110-259-115v-84c0-12-9-21-21-21-11 0-21 9-21 21v84c-98 5-189 45-259 115-70 70-110 161-115 259h-84c-12 0-21 10-21 21 0 12 9 21 21 21h84c5 98 45 189 115 259 70 70 161 110 259 115v84c0 12 10 21 21 21 12 0 21-9 21-21v-84c98-5 189-45 259-115 70-70 110-161 115-259h84z m-458 207v-84c64-9 114-59 123-123h84c-10 110-97 197-207 207z m207-249h-84c-9-64-59-114-123-123v-84c110 10 197 97 207 207z m-478 271c-62-61-98-142-103-229h83c10 133 116 239 249 249v84c-87-5-167-42-229-104z m22-229h84c9 64 59 114 123 123v84c-110-10-197-97-207-207z m207-165c-64 9-114 59-123 123h-84c10-110 97-197 207-207v84z m0-210v84c-133 10-239 116-249 249h-83c5-87 41-167 103-229 62-62 142-98 229-104z m21 250c57 0 104 47 104 104s-47 104-104 104c-57 0-104-47-104-104s47-104 104-104z m250-146c62 62 99 142 104 229h-84c-10-133-116-239-249-249v-84c87 6 168 42 229 104z m20 271h84c-5 87-42 168-104 229-61 62-142 99-229 104v-84c133-10 239-116 249-249z m-255-6c8-8 8-22 0-30-8-8-22-8-30 0-8 8-8 22 0 30 8 8 22 8 30 0z" horiz-adv-x="1000" />

<glyph glyph-name="uniF105-1" unicode="&#xe805;" d="M821 668c27-128 38-234 31-316-2-26-28-157-37-204l-3-16c0 0-17-63-35-127-11-37-20-68-28-90-15-45-21-52-28-57-10-7-25-8-36-8-41 0-86 20-97 64-5 24-7 71-10 126-4 66-8 148-18 177-6 18-21 36-37 56-8-46-19-99-24-125l-3-16c0 0-17-63-35-127-11-37-20-68-27-90-16-45-22-52-28-57-11-7-26-8-37-8-41 0-86 20-96 64-6 24-8 71-11 126-3 66-8 148-18 177-6 19-22 38-39 59-29 34-61 73-59 125 3 75 80 126 99 138 8 11 28 41 39 65 6 13-6 46-17 65 0 1-1 2-1 2l-65 150c-2 6-2 14 2 20 4 6 10 9 17 9h222c9 0 17-6 20-14 0-3 23-73 43-168 12-54 20-104 26-150 13 10 24 18 30 21 7 11 28 41 38 65 7 14-6 47-16 65-1 1-1 2-1 2l-65 150c-3 6-2 14 2 20 4 6 10 9 17 9h221c10 0 18-6 20-14 1-3 23-73 44-168z m-355-19c-18-6-51-13-103-13-3 0-5 0-8 0 38-33 92-78 132-104-6 40-13 80-21 117z m5-206l-105-33c3-9 7-19 10-29l86 29c2 12 5 23 9 33z m-124 4l43 14c-35 28-72 60-94 80-3-6-7-11-9-15 14-16 38-44 60-79z m92 30l38 12c-43 27-108 79-151 116 0-7-2-13-4-18-2-3-3-6-5-9 24-21 78-69 122-101z m18 213c-1 5-2 10-3 15-20-4-63-11-118-11-11 0-23 0-35 0l3-5c1-2 2-5 4-9 87-8 133 4 149 10z m-174 48c76-7 136 2 161 7-8 28-14 50-18 63h-174z m98-845c2 4 6 13 10 24-5-1-9-2-14-2-3-1-6-1-9-1-19 0-37 5-56 16 0-2 1-5 1-6 6-26 38-32 56-32 5 0 9 0 12 1z m28 83c13 44 29 99 43 152-12 8-30 21-43 36-30 34-45 93-59 150-10 39-19 76-31 98-21 37-48 68-62 85-23-16-68-53-69-98-2-35 23-65 49-97 19-22 38-45 47-71 12-36 16-113 20-188 1-21 2-40 3-58 24-21 46-31 66-29 22 2 35 20 36 20z m52 196c9 43 21 104 28 145-10 15-19 32-24 50l-79-26c2-5 3-11 4-17 13-50 27-106 50-132 6-7 14-14 21-20z m321 477c-19-6-52-13-103-13-3 0-6 0-9 0 39-33 93-78 133-104-6 40-13 80-21 117z m-149-71c24-21 78-69 122-101l38 12c-44 27-108 79-151 116-1-7-2-13-5-18-1-3-2-6-4-9z m73-117c-36 28-72 60-94 80-3-6-7-11-10-15 14-16 39-44 60-79z m67 229c-1 5-2 10-3 15-21-4-63-11-119-11-11 0-22 0-34 0l3-5c0-2 2-5 4-9 86-8 132 4 149 10z m-174 48c76-7 136 2 160 7-7 28-13 50-17 63h-174z m98-845c2 4 5 13 9 24-4-1-9-2-13-2-3-1-7-1-10-1-18 0-36 5-55 16 0-2 1-5 1-6 6-26 38-32 56-32 5 0 9 0 12 1z m28 83c13 44 28 99 42 152-12 8-29 21-42 36-31 34-45 93-59 150-10 39-19 76-31 98-21 37-48 68-63 85-23-16-67-53-69-98-1-35 24-65 50-97 19-22 38-45 47-71 12-36 16-113 19-188 1-20 3-40 4-58 24-21 46-31 65-29 23 2 36 20 36 20z m86 379c0 8 1 15 1 23l-110-37c1-5 3-11 4-17 12-50 26-106 50-132 6-7 14-14 21-20 13 63 32 164 34 183z m-120 26l121 41c0 9 0 19-1 29l-129-41c3-9 6-19 9-29z" horiz-adv-x="1000" />

<glyph glyph-name="uniF106-1" unicode="&#xe806;" d="M798 136c8 8 21 8 29 0 9-8 9-22 0-30-8-8-21-8-29 0-8 8-8 22 0 30z m165 677c49-48 49-128 0-176l-838-753c7-8 7-20-1-28-8-8-21-8-29 0l-89 88c-8 9-8 22 0 30 8 7 20 8 28 1 139 155 749 835 753 838 48 49 128 49 176 0z m-796-836v84c-37-41-72-79-103-115l32-33z m83 75v102c-14-16-28-31-42-46v-94z m83 75v120c-13-16-27-31-41-47v-111z m602 540c31 32 31 85-1 117-32 32-85 32-117 0-13-13-224-248-442-491v-129z m-196-472c41 40 107 40 148 0 40-41 40-107 0-148-20-19-46-30-74-30-28 0-54 11-74 30-19 20-30 46-30 74 0 28 11 54 30 74z m74-137c17 0 32 7 44 19 19 19 23 48 12 71-8-5-20-5-27 3-7 7-8 18-2 26-23 11-52 7-71-12-12-12-19-27-19-44 0-10 2-19 6-27 9 6 20 5 27-2 8-8 8-19 2-27 9-4 18-7 28-7z" horiz-adv-x="1000" />

<glyph glyph-name="uniF103-1" unicode="&#xe807;" d="M254 781c8-8 8-21 0-29-8-8-21-8-29 0-8 8-8 21 0 29 8 9 21 9 29 0z m298-359v-144c11-17 40-67 38-110-2-48-19-86-52-116-28-25-64-41-102-58-39-18-79-36-113-65-3-44-39-79-84-79-45 0-83 37-83 83 0 39 27 72 63 81v672c-36 9-63 42-63 81 0 46 38 83 83 83 45 0 81-35 84-79 34-29 74-47 113-65 38-17 74-33 102-58 33-30 50-68 52-116 2-43-27-93-38-110z m-240 304c-4-7-9-14-16-20 20-13 43-25 67-37 64-31 129-64 133-125 2-32-9-67-18-90h45c11 20 26 52 25 76-2 37-14 65-38 87-23 21-56 35-91 51-34 16-72 33-107 58z m177-355h21 0v42h-41v-42h20z m21-42h-21-20v-41h41v41z m-187 0c-12 0-21 10-21 21 0 12 9 21 21 21h104v72l2 5c1 0 28 53 25 94-2 36-54 62-109 90-29 14-59 30-85 48v-660c26 19 56 34 85 48 55 28 107 54 109 90 3 41-24 94-25 94l-2 5 0 5v67h-104z m-125 438c0-23 18-42 41-42s42 19 42 42-19 41-42 41c-23 0-41-18-41-41z m41-875c23 0 42 18 42 41 0 23-19 42-42 42-23 0-41-19-41-42 0-23 18-41 41-41z m309 278c1 24-14 56-25 76h-45c9-23 20-58 18-90-4-61-69-94-133-125-24-12-47-24-67-37 7-6 12-13 16-20 35 25 73 42 107 58 35 16 68 30 91 51 24 22 36 50 38 87z m-294-222c8-8 8-21 0-29-8-9-21-9-29 0-8 8-8 21 0 29 8 8 21 8 29 0z m586 143c4-6 5-13 3-19l-63-167c-3-8-11-13-20-13-9 0-16 5-19 13l-63 167c-3 6-2 13 2 19 4 6 10 9 17 9h42v377l-62 40v208h62v44c0 11 10 21 21 21 12 0 21-10 21-21v-44h62v-208l-62-39v-378h42c7 0 13-3 17-9z m-59 592v-156l21 13v143h-21z m-42-157v157h-21v-143z m21-555l33 87h-66z" horiz-adv-x="1000" />

<glyph glyph-name="uniF100-1" unicode="&#xe808;" d="M604 148l143-267c6-10 2-23-8-29-3-1-7-2-10-2-7 0-15 4-18 11l-144 267c-34-15-71-25-109-27v-147c0-11-9-21-21-21s-20 10-20 21v147c-38 2-75 11-109 27l-143-267c-4-7-11-11-19-11-3 0-7 1-10 2-10 6-14 19-8 29l143 267c-19 12-38 27-55 44-59 59-91 137-91 221 0 83 32 162 91 221 59 59 138 91 221 91 66 0 128-20 181-57l-8 35 147 147 45-44 10 10c8 8 21 8 29 0 8-8 8-21 0-29l-10-11 44-44-147-147-35 8c37-52 57-115 57-180 0-84-33-162-92-221-16-17-35-32-54-44z m212 584l-14 15-111-111 24-5z m-59 59l-101-102 5-24 111 111z m-320-649c150 0 271 121 271 271 0 67-24 128-65 175l-44-44c29-36 47-82 47-131 0-115-94-209-209-209s-208 94-208 209c0 114 93 208 208 208 50 0 96-18 132-47l45 44c-48 41-109 65-177 65-149 0-271-121-271-270 0-150 122-271 271-271z m-14 256c-8 8-8 21 0 29l41 41c-8 4-17 7-27 7-34 0-62-28-62-62 0-35 28-62 62-62 35 0 62 27 62 62 0 9-2 18-5 26l-41-41c-5-4-10-6-15-6-5 0-11 2-15 6z m72 101l45 45c-28 22-64 35-103 35-92 0-166-74-166-166 0-92 74-167 166-167 92 0 167 75 167 167 0 38-13 73-35 101l-45-45c11-16 17-35 17-56 0-58-46-104-104-104-57 0-103 46-103 104 0 57 46 103 103 103 22 0 41-6 58-17z" horiz-adv-x="1000" />

<glyph glyph-name="uniF114-1" unicode="&#xe809;" d="M622 350c-56 0-109 22-149 61-40 40-62 93-62 150s22 109 62 149c40 40 93 62 149 62s109-22 149-62c40-40 62-93 62-149s-22-110-62-150c-40-39-93-61-149-61z m-127 338c-34-34-53-79-53-127 0-48 19-94 53-128s79-52 127-52c48 0 93 19 127 52s53 80 53 128c0 48-19 93-53 127-34 34-79 52-127 52-48 0-93-18-127-52z m325-332c-98-99-253-111-366-32l-268-268c8-32-2-66-25-90-18-17-41-27-67-27s-49 10-66 27c-37 37-37 97 0 134 23 23 57 33 89 25l268 268c-79 113-67 268 32 366 111 112 292 112 403 0 54-54 84-125 84-202 0-76-30-147-84-201z m-378 0c5 5 14 6 20 1 101-79 246-70 336 21 48 48 75 112 75 179 0 68-27 132-75 180-48 48-112 75-180 75-67 0-131-27-179-75-91-90-100-235-21-336 5-6 4-15-1-20l-285-285c-4-4-10-5-16-3-7 2-14 3-21 3-17 0-33-6-45-18-25-25-25-65 0-89 12-12 27-19 44-19s33 7 45 19c17 17 23 43 15 66-2 5-1 12 3 16z m267 150c23 31 23 68-1 111-5 8-2 17 6 21 7 5 17 2 21-6 30-54 30-103-1-145-3-4-8-6-13-6-3 0-6 1-9 3-7 5-9 15-3 22z m-91-477l64-110c3-5 3-11 0-16-8-14-20-25-33-33-15-8-30-13-46-13-8 0-15 1-23 3-23 6-43 21-55 41-12 21-15 45-8 69 6 23 21 42 43 54 13 8 29 13 45 13 5 0 11-3 13-8z m15-132c7 4 12 9 17 14l-54 94c-7-1-14-4-21-8-14-8-24-21-28-36-4-15-2-31 5-44 8-13 21-23 36-27 15-3 31-1 45 7z m357 278c33-59-18-149-117-206-30-18-62-30-93-37-1 0-3-1-4-1-5 0-10 3-13 8l-90 157c-4 5-3 13 2 18 21 23 48 45 78 62 99 57 203 57 237-1z m-133-179c81 47 130 121 106 163-24 41-113 37-194-10-24-14-46-30-64-48l79-136c24 6 49 17 73 31z" horiz-adv-x="1000" />

<glyph glyph-name="uniF115-1" unicode="&#xe80a;" d="M995-12c6-6 7-16 1-22-6-7-15-7-22-2-61 55-116 55-172 1-72-64-146-64-216-1-59 48-116 48-173 0-36-35-71-52-107-52-36 0-71 17-108 53-61 50-114 50-172-1-7-5-16-5-22 2-6 6-5 16 1 22 70 61 140 61 214 0 62-61 112-60 173-1 69 58 143 58 215 1 59-54 114-54 173 0 67 64 142 65 215 0z m-711 620l-123 155c-5 7-4 17 3 22 7 5 16 4 22-2l119-150 175-26c0 0 0 0 0 0 1 0 2 0 3-1 1 0 2 0 3-1 0 0 1-1 1-1 1-1 2-2 3-3 0 0 0 0 0 0l168-240c0 0 0 0 1-1 14 9 31 13 49 10 37-7 62-43 56-80v0c-6-34-36-57-69-57-4 0-8 0-12 1-38 7-63 43-56 80 2 9 5 18 10 25-2 1-3 2-4 4l-60 85-16-155 108-140c6-7 4-17-3-22-2-2-6-3-9-3-5 0-9 2-12 6l-113 144c-2 4-3 8-3 12l21 196c0 1 0 1 0 1l-78 111-174 25c-4 0-7 2-10 5z m411-266c-19 0-35-14-39-33-4-22 11-42 32-46 22-4 43 10 47 32 4 22-11 42-33 46-2 1-4 1-7 1z" horiz-adv-x="1000" />

<glyph glyph-name="uniF12B-1" unicode="&#xe80b;" d="M994 463c7-5 8-14 3-21l-30-40c-13-18-35-29-58-29-1 0-2 0-2 0-9 0-18 2-26 5l-203-126c-2-2-5-3-8-3-1 0-3 0-4 1-4 1-8 3-10 7l-138 233v-344l295 77c7 2 15-2 18-9 3-6 1-15-5-19l-276-200 44-66c5-7 3-17-4-21-3-2-6-3-9-3-5 0-10 2-13 7l-53 79c-4 7-2 16 4 21l221 160-234-61c0 0 0 0-1 0-1 0-2 0-3 0-1 0-2 0-3 0 0 0 0 0-1 0l-234 61 221-160c7-5 9-14 4-21l-52-79c-3-5-8-7-13-7-3 0-6 1-9 3-7 4-9 14-4 21l44 66-277 200c-6 4-8 13-5 19 4 7 11 11 18 9l296-77v343l-139-235c-2-4-5-7-10-8-1 0-2 0-3 0-3 0-6 1-9 2l-207 130c-8-3-17-5-25-5-1 0-2 0-2 0-24 0-45 11-59 29l-30 40c-5 6-4 16 3 21 7 6 17 4 22-3l30-39c8-11 21-17 35-17 13 0 26 7 34 19l7 10c5 8 14 9 21 5 8-5 10-15 5-22l-7-10c-2-3-4-6-6-8l182-115 158 268v51c0 1 0 2 0 2-33 6-63 29-75 63-9 24-7 50 3 73 11 23 31 41 55 49 50 18 105-8 123-57 8-25 7-51-4-74-11-23-30-41-54-49-6-2-12-4-18-5 1 0 1-1 1-2v-51l157-264 178 111c-2 2-4 5-6 8l-7 10c-4 7-3 17 5 22 7 5 17 3 21-5l7-10c8-12 21-19 34-19 14 0 27 6 35 17l30 39c5 7 15 9 22 3z m-553 214c12-33 50-51 83-39 16 6 29 18 37 34 7 15 8 33 2 49-9 26-34 43-61 43-7 0-14-1-22-4-16-6-29-18-36-33-8-16-8-34-3-50z" horiz-adv-x="1000" />

<glyph glyph-name="uniF116-1" unicode="&#xe80c;" d="M327 243c-16-26-46-43-77-43h-132c-65 0-118 53-118 118v138c0 51 41 92 91 92h638c51 0 93-42 93-94v-137c0-65-52-117-116-117h-133c-32 0-62 16-78 43l-29 46c-11 19-31 30-52 30h-7c-21 0-40-11-51-29z m-77-12c21 0 40 11 51 29l28 47c17 26 46 43 78 43h7c32 0 62-17 79-44l28-46c11-18 30-29 52-29h133c47 0 85 39 85 86v137c0 35-28 62-62 62h-638c-33 0-60-27-60-60v-138c0-48 39-87 87-87h132z m734 619c9 0 16-7 16-16v-698c0-3 0-82-56-139-38-38-91-57-157-57h-242v-10c0-4-2-9-6-12l-56-43c-21-17-46-25-72-25s-51 8-72 25l-56 43c-4 3-6 8-6 12v185c0 5 2 9 6 12l56 43c42 33 102 33 144 0l56-43c4-3 6-7 6-12v-24h242c0 0 37 0 61 24 15 14 22 35 22 61v658c0 9 7 16 16 16h98z m-15-31h-68v-104h68v104z m-455-881v18 120 31l-50 39c-31 24-75 24-106 0l-50-39v-169l50-39c31-24 75-24 106 0z m408 81c47 48 47 116 47 117v548h-68v-508c0-35-10-63-31-84-34-32-82-32-84-32h-241v-88h242c58 0 103 16 135 47z m-422 423c-9 0-16 7-16 16 0 8 7 15 16 15h219c8 0 15-7 15-15 0-9-7-16-15-16h-219z" horiz-adv-x="1000" />

<glyph glyph-name="uniF12C-1" unicode="&#xe80d;" d="M692 812c165-96 203-340 85-544-53-93-132-165-221-205-1 0-1 0-1 0 0 0 0 0 0 0-76-33-155-40-225-21l-106-184c-3-5-9-8-14-8-3 0-6 1-9 2l-95 55c-8 5-10 15-6 22l107 185c-52 51-86 123-95 204 0 1 0 1 0 1 0 0 0 0 0 0-11 98 13 202 66 295 118 204 349 293 514 198z m-365-735c57-18 121-17 183 4l-360 208c13-65 44-121 88-160 6-5 7-14 3-21l-104-181 67-38 104 181c4 7 12 10 19 7z m223 20c80 37 151 103 199 187 109 189 76 413-73 499-150 87-360 3-469-186-49-83-71-178-63-266z m259-54c51 0 93-42 93-94 0-51-42-93-93-93-52 0-94 42-94 93 0 52 42 94 94 94z m0-156c34 0 62 28 62 62 0 35-28 63-62 63-35 0-63-28-63-63 0-34 28-62 63-62z" horiz-adv-x="1000" />

<glyph glyph-name="uniF109-1" unicode="&#xe80e;" d="M784 446c119 0 216-97 216-216 0-119-97-216-216-216-119 0-215 97-215 216 0 86 50 159 122 194l-27 90h-375l-16-76c91-26 158-109 158-208 0-119-96-216-215-216-119 0-216 97-216 216 0 119 97 216 216 216 9 0 18-1 27-2l17 85-19 66h-55c-25 0-46 20-46 45 0 25 21 46 46 46h140c25 0 45-21 45-46s-20-45-45-45h-52l14-49h376l37 128c2 7 8 12 15 12h140c7 0 13-5 15-11 1-3 17-57-9-92-14-19-36-29-66-29-9 0-16 7-16 16s7 16 16 16c19 0 33 5 40 15 12 16 10 40 7 54h-115l-36-125 28-94c21 6 42 10 64 10z m-613 194c0-8 7-14 15-14h140c8 0 14 6 14 14 0 8-6 15-14 15h-140c-8 0-15-7-15-15z m229-410c0 84-56 155-133 177l-36-180c-1-7-8-13-15-13-1 0-2 0-3 1-9 1-14 10-13 18l36 180c-6 1-13 1-20 1-102 0-185-82-185-184s83-184 185-184c101 0 184 82 184 184z m384-184c102 0 185 82 185 184s-83 184-185 184c-19 0-37-3-55-8l21-70 40-79c4-8 1-17-7-21s-17-1-21 7l-40 80c-1 1-1 2-1 3l-21 68c-59-31-100-93-100-164 0-102 83-184 184-184z m113 200c8-1 15-8 15-17-3-43-19-79-46-103-25-21-57-32-94-32-6 0-12 0-17 0-9 1-15 9-15 17 1 9 8 16 17 15 36-4 67 5 88 24 21 18 33 46 35 81 1 8 8 15 17 15z m-751-96c22-19 52-28 88-24 9 1 17-6 17-15 1-8-5-16-14-17-6 0-12 0-17 0-38 0-70 11-94 32-28 24-44 60-46 103 0 9 6 16 15 17 8 0 16-7 16-15 2-35 14-63 35-81z" horiz-adv-x="1000" />

<glyph glyph-name="uniF104-2" unicode="&#xe80f;" d="M990 392c6-3 10-8 10-14 0-6-3-12-8-15l-631-320 29-29c4-4 5-10 4-16-9-33-27-65-52-89-38-38-88-59-142-59-53 0-103 21-141 59-38 37-59 88-59 141s21 104 59 142c25 25 56 43 90 52 5 1 11 0 15-4l30-30 319 631c3 6 9 9 15 9 6 0 11-4 14-10 0-1 42-106 78-142 35-35 142-79 143-79 4-2 7-5 9-9 0-1 41-105 76-140 36-35 141-78 142-78z m-464 405l-35-68 183-183 54 54c-35 16-101 47-130 76-27 27-56 85-72 121z m245-391c-1-4-448-325-448-325l15-15 512 260z m-471-302c0 0 450 320 451 321l-77 77-381-381c-2-2-4-3-7-4z m-29 39l381 381-77 77c-1-1-321-451-321-451l13-14c1 3 2 5 4 7z m205 557l-259-514 14-13s321 447 325 448z m-156-769c19 19 33 42 41 67l-213 213c-25-8-48-22-67-41-32-32-50-74-50-120 0-45 18-87 50-119 66-66 173-66 239 0z m559 410l69 35c-37 16-95 45-122 72-29 30-61 97-75 131 0 0 0 0-1-1l-54-54z" horiz-adv-x="1000" />

<glyph glyph-name="uniF11F-1" unicode="&#xe810;" d="M894 850c8 0 15-7 15-16v-968c0-9-7-16-15-16h-81c-9 0-16 7-16 16v852h-134v-227c0-8-7-15-15-15h-126v-166c0-2 0-3-1-5h6c7 0 14-5 15-13l40-263c2-8-4-16-13-17 0-1-1-1-2-1-8 0-14 6-15 14l-39 249h-13l-39-249c-1-9-9-15-17-13-9 1-15 9-14 17l41 263c1 8 8 13 15 13h6c-1 2-1 3-1 5v166h-126c-9 0-16 7-16 15v227h-145c-1 0-1 0-1 0v-852c0-9-7-16-16-16h-81c-8 0-15 7-15 16v968c0 9 7 16 15 16h81c9 0 16-7 16-16v-85c0 0 0 0 1 0h145v25c0 9 7 16 16 16s16-7 16-16v-25h251v25c0 9 7 16 16 16s15-7 15-16v-25h134v85c0 9 7 16 16 16h81z m-722-969v938h-50v-938h50z m460 626v211h-251v-211h110v25c0 2 0 4 1 6-35 7-62 38-62 75 0 42 34 76 76 76 42 0 77-34 77-76 0-37-27-68-62-75 1-2 1-4 1-6v-25h110z m-126 61c25 0 45 20 45 45 0 24-20 45-45 45-24 0-45-21-45-45 0-25 21-45 45-45z m372-687v938h-49v-938h49z" horiz-adv-x="1000" />

<glyph glyph-name="uniF124-1" unicode="&#xe811;" d="M978 388c14-12 22-29 22-47 0-18-8-35-22-47-11-10-25-15-40-15-3 0-7 0-10 1l-83 14c-18 3-32 15-37 31h-122c-5-256-82-454-179-454-98 0-175 198-179 454h-136c-5-16-19-28-37-31l-83-14c-3-1-7-1-10-1-15 0-29 5-40 15-14 12-22 29-22 47 0 18 8 35 22 47 14 12 32 17 50 14l83-14c18-3 32-15 37-31h135c2 265 80 472 180 472 99 0 178-207 179-472h122c5 16 19 28 37 31l83 14c18 3 36-2 50-14z m-471 410c-87 0-147-231-148-441h50c5 93 46 163 98 163 52 0 93-70 97-163h51c-2 210-62 441-148 441z m-66-441h132c-4 78-37 132-66 132-30 0-62-54-66-132z m132-32h-132c4-78 36-132 66-132s62 54 66 132z m-423 0c8 1 14 8 14 16s-6 15-14 16l-83 14c-2 0-3 1-5 1-7 0-14-3-20-8-7-6-11-14-11-23 0-9 4-18 11-23 7-6 16-9 25-7h0z m357-423c84 0 143 218 147 423h-50c-4-93-45-163-97-163s-93 70-98 163h-50c4-205 64-423 148-423z m451 416c7 5 11 14 11 23 0 9-4 17-11 23-6 5-13 8-20 8-1 0-3-1-5-1l-83-14c-8-1-14-8-14-16 0-8 6-15 14-16l83-14h0c9-2 18 1 25 7z" horiz-adv-x="1000" />

<glyph glyph-name="uniF10D-1" unicode="&#xe812;" d="M698 444l19-62c39-129 29-268-27-391-2-3-5-6-8-8-21-8-42-13-62-13-20 0-40 5-59 14-3 1-6 4-7 7-57 123-66 262-27 391l18 60c10 34 15 69 15 105 0 29-4 58-12 86-2 5-3 12-3 20 0 42 34 77 77 77 42 0 77-35 77-77 0-8-1-15-3-22-8-28-12-57-12-87 0-1 0-2 0-3 0-33 5-65 14-97z m-76 255c-26 0-46-21-46-46 0-4 0-8 1-10 10-32 14-64 14-96 0-19-1-39-4-58h69c-2 19-4 37-4 55 0 2 1 3 1 4 0 31 5 62 13 92 1 4 2 8 2 13 0 25-21 46-46 46z m42-689c51 114 59 243 23 363l-19 62c-2 8-4 16-6 23h-81c-1-8-4-17-6-25l-18-60c-37-120-28-249 23-363 26-12 54-12 84 0z m313 372c38-129 29-268-27-391-2-3-5-6-9-8-21-8-41-13-61-13-21 0-40 5-59 14-3 1-6 4-8 7-56 123-65 262-26 391l18 60c10 34 15 69 15 105 0 29-4 58-13 86-2 5-3 12-3 20 0 42 35 77 77 77 43 0 78-35 78-77 0-7-1-15-3-22-8-28-12-57-12-87 0-1 0-2-1-3 1-33 6-65 15-97z m-96 317c-25 0-46-21-46-46 0-4 1-8 2-10 9-32 14-64 14-96 0-19-1-39-4-58h69c-3 19-4 37-4 55 0 2 0 3 1 4 0 31 4 62 13 92 1 4 2 8 2 13 0 25-21 46-47 46z m43-689c51 114 59 243 23 363l-19 62c-2 8-4 16-6 23h-81c-2-8-4-17-6-25l-19-60c-36-120-28-249 23-363 27-12 54-12 85 0z m-691 444c129 0 233-104 233-233 0-128-104-233-233-233s-233 105-233 233c0 129 105 233 233 233z m0-435c112 0 202 91 202 202 0 112-90 202-202 202-111 0-202-90-202-202 0-111 91-202 202-202z m-17 317c6-22-8-46-30-52-4-1-8-1-11-1-19 0-36 12-41 31-6 23 7 46 30 52 22 6 46-7 52-30z m-38-22c6 2 9 8 8 14-2 5-6 8-11 8-1 0-2 0-3 0v0c-6-2-10-8-8-14 2-6 8-9 14-8z m75-99c-4-1-8-2-11-2-19 0-36 13-41 31-3 11-1 23 4 33s15 16 26 19c11 3 22 2 32-4s17-15 20-26c6-22-8-45-30-51z m-22 38c2-6 8-10 14-8 6 1 9 7 8 13-1 3-3 6-6 7-1 1-3 2-5 2-1 0-2 0-3-1h0c-3 0-5-2-7-5-1-3-2-6-1-8z m16 61c-9 5-16 14-19 25-3 11-2 23 4 32 6 10 15 17 26 20v0c22 6 45-7 52-30 2-11 1-22-5-32-5-10-14-17-25-20-4-1-8-1-11-1-8 0-15 2-22 6z m12 42c-2-3-2-6-1-9 1-2 2-5 5-6 3-2 6-2 9-2 2 1 5 3 6 6 2 2 2 5 1 8-1 6-7 10-13 8-3-1-6-2-7-5z m-26-286c31 1 106 12 140 97 3 8 12 12 20 9 8-3 12-12 9-20-28-71-91-115-168-117h-1c-8 0-15 6-15 15-1 9 6 16 15 16z" horiz-adv-x="1000" />

<glyph glyph-name="uniF112-1" unicode="&#xe813;" d="M953 600c26 0 47-21 47-47s-21-47-47-47c0 0-1 0-1 0l-76-484h-734l-94 484c0 0-1 0-1 0-26 0-47 21-47 47s21 47 47 47c26 0 47-21 47-47 0-13-5-24-14-33l205-164 46 230c-19 6-34 24-34 45 0 26 21 47 47 47 26 0 47-21 47-47 0-15-7-28-18-36l135-204 122 201c-12 9-21 23-21 39 0 26 21 47 47 47 26 0 47-21 47-47 0-20-13-37-31-44l59-231 189 164c-8 9-14 20-14 33 0 26 21 47 47 47z m-297 47c-8 0-15-7-15-16s7-15 15-15c9 0 16 7 16 15s-7 16-16 16z m-312 0c-9 0-16-7-16-16s7-15 16-15c8 0 15 7 15 15s-7 16-15 16z m-313-94c0-8 7-15 16-15 9 0 16 7 16 15s-7 16-16 16c-9 0-16-7-16-16z m137-500h682l7 47h-698z m694 78l54 344-183-159-26 7-60 237-125-207-26 0-138 207-47-236-25-9-200 161 67-345c1 0 2 0 3 0h706z m91 407c9 0 16 7 16 15s-7 16-16 16c-8 0-15-7-15-16s7-15 15-15z" horiz-adv-x="1000" />

<glyph glyph-name="uniF11B-1" unicode="&#xe814;" d="M408 79c64 0 115-51 115-115 0-63-51-114-115-114-63 0-114 51-114 114 0 64 51 115 114 115z m0-196c46 0 82 36 82 81s-36 82-82 82-81-36-81-82 36-81 81-81z m401 460c-9 2-14 11-12 20l46 182-126 84-129-276 212-192c5-5 7-12 4-18l-64-181h97c9 0 16-8 16-17s-7-16-16-16h-120 0c-2 0-4 0-6 1 0 0 0 0 0 0-1 1-2 1-3 2-1 1-2 1-3 2 0 0-1 1-1 2-1 1-2 2-2 3-1 1-1 2-1 2 0 2-1 3-1 4 0 0 0 0 0 0 0 1 1 2 1 3 0 1 0 2 0 3l69 193-205 185-193-184c-3-2-5-4-9-4l-204-35 20-79c2-9-3-18-12-20-2 0-3-1-4-1-8 0-14 5-16 13l-24 96c0 0 0 1 0 1 0 0 0 0 0 0-1 1 0 2 0 3 0 1 0 2 0 3 0 1 0 2 1 3 0 1 1 2 1 3 1 1 1 2 2 2 1 1 2 2 2 2 1 1 2 1 3 2 1 0 2 1 3 1 0 0 0 0 0 0 1 0 1 0 1 0l217 37 207 197 122 260-148 3-140-256c-3-5-9-8-14-8-3 0-6 0-8 2-8 4-11 14-7 22l145 265c3 5 8 8 14 8l163-3c3 0 6-1 9-3l18 40c-15 9-27 24-34 42-15 42 7 89 50 104 20 8 42 7 62-3 20-9 35-26 42-46 16-43-7-89-49-105-9-3-18-5-28-5-4 0-8 1-12 1l-13-28 138-93c6-4 9-11 7-17l-48-194c-2-8-9-13-16-13-1 0-3 0-4 1z m-68 471c-26-9-39-37-30-62 9-26 37-39 63-30 25 9 39 37 30 63-5 12-14 22-26 28-6 3-14 4-21 4-5 0-11-1-16-3v0z" horiz-adv-x="1000" />

<glyph glyph-name="uniF110-1" unicode="&#xe815;" d="M1000 471c0-153-74-323-86-349v-152c0-9-7-16-16-16h-259c-8 0-15 7-15 16v150c-22 30-141 199-65 275 38 38 69 34 85 29 23-7 40-28 43-52 3-21-5-41-21-52-8-6-12-12-12-16 1-3 3-5 7-6 5-1 12 2 18 9 5 7 15 9 22 3 6-5 8-15 3-21-14-18-32-26-50-22-16 4-27 16-30 31-2 8-3 29 24 47 9 7 9 17 8 22-1 11-9 23-22 28-15 5-34-3-53-22-50-50 27-179 66-232h241c17 39 81 194 81 330 0 204-53 242-157 243l-21 0c-128 1-167 2-208-62-26-42-45-100-27-133 12-22 40-33 83-33h173c1 0 1 0 2 0 12-2 45-2 58 15 13 16 4 45-5 67-4 8 0 17 8 20 8 4 17 0 20-8 19-43 19-76 2-98-25-33-77-28-86-27h-172c-55 0-92 16-110 49-26 48-1 119 28 165 50 78 104 78 234 76l21 0c174-2 188-131 188-274z m-117-361h-228v-47c1 0 1 0 2 0h226v47z m-228-124h228v46h-226c-1 0-1 0-2 0v-46z m-446 759c130 2 184 2 234-76 29-46 54-117 28-165-18-33-55-49-110-49h-172c-9-1-61-6-86 27-17 22-17 55 2 98 3 8 12 12 20 8 8-3 12-12 9-20-10-22-18-51-6-67 13-17 46-17 58-15 1 0 1 0 2 0h173c43 0 71 11 83 33 18 33-1 91-27 133-41 64-80 63-208 62l-21 0c-132-2-157-83-157-243 0-136 64-291 81-330h241c39 53 116 182 66 232-19 19-38 27-53 22-13-5-21-17-22-28-1-5-1-15 8-22 27-18 26-39 24-47-2-15-14-27-29-31-18-4-37 4-50 22-6 6-4 16 3 21 6 6 16 4 21-3 6-7 13-10 18-9 4 1 6 3 7 6 1 4-4 10-11 16-17 11-25 31-22 52 3 24 20 45 43 52 16 5 48 9 85-29 76-76-43-245-65-275v-150c0-9-7-16-15-16h-259c-9 0-16 7-16 16v152c-11 26-86 196-86 349 0 143 14 272 188 274z m-91-759h227v46c0 0-1 0-1 0h-226v-46z m227 124h-227v-47h226c0 0 1 0 1 0v47z" horiz-adv-x="1000" />

<glyph glyph-name="uniF100-2" unicode="&#xe816;" d="M938 788c133-134 45-439-196-680-165-165-359-258-508-258-70 0-129 20-172 62-133 134-45 439 196 680 241 241 546 329 680 196z m-22-23c-38 38-90 55-151 55-38 0-80-7-124-20 0-2 1-3 1-4 0-1 2-64 121-183 119-119 182-121 183-121 1 0 3-1 4-1 34 114 26 214-34 274z m-831-831c57-57 152-67 260-38-3 16-20 77-121 178-101 101-162 118-178 121-29-108-19-203 39-261z m635 196c106 106 181 223 220 331-21 2-88 19-199 130-111 111-128 178-130 199-108-39-225-114-331-220-110-110-187-233-225-345 27-5 91-29 191-129 100-100 124-164 129-191 112 37 235 115 345 225z m-127 291l43-42c6-6 6-16 0-22-4-3-8-5-12-5s-8 2-11 5l-42 42-49-49 42-42c7-6 7-16 0-22-3-3-7-5-11-5-4 0-8 2-11 5l-42 42-49-49 42-42c6-6 6-16 0-22-3-3-7-5-11-5s-8 2-11 5l-42 42-25-25c-3-3-7-4-11-4s-8 1-11 4c-6 6-6 16 0 22l25 25-42 42c-7 6-7 16 0 22 6 6 16 6 22 0l42-42 49 49-42 42c-6 6-6 16 0 22 6 7 16 7 22 0l42-42 49 49-42 42c-6 6-6 16 0 23 6 6 16 6 22 0l42-43 25 25c6 6 16 6 22 0 6-6 6-16 0-22z" horiz-adv-x="1000" />

<glyph glyph-name="uniF108-2" unicode="&#xe817;" d="M143 5c21-19 51-27 86-24 8 1 16-5 17-14 0-9-6-16-15-17-5 0-11-1-16-1-37 0-68 11-92 32-27 23-43 58-45 101 0 8 6 16 15 16 8 1 16-6 16-15 2-33 14-61 34-78z m770 93c9 0 15-8 15-16-2-43-18-78-45-101-24-21-55-32-92-32-5 0-11 1-16 1-9 1-15 8-15 17 1 9 9 15 17 14 35-3 65 5 86 24 20 17 32 45 34 78 0 9 8 16 16 15z m-603 332l127-143c5-6 5-15-1-21l-57-58c26-35 42-79 42-126 0-116-94-211-210-211-116 0-211 95-211 211 0 116 95 211 211 211 57 0 109-24 147-61l46 46-127 142c-1 1-1 2-2 3 0 1-1 2-1 3 0 0 0 1-1 2 0 1 0 2 0 3 0 2 0 2 1 3 0 1 0 2 0 3 1 1 2 2 2 3 1 1 1 2 2 2l0 0v0 0l271 249c1 1 3 2 5 3-10 10-18 22-22 36-11 42 14 85 55 96 42 11 85-14 96-55 11-42-14-85-55-96-7-2-14-3-20-3-11 0-22 3-31 7 0-1 0-2 0-2l-36-194 141-35c9-2 14-11 12-19-2-7-9-12-16-12-1 0-2 0-3 1l-156 39c-8 2-13 10-12 18l31 163z m286 366c-25-7-40-33-34-58 7-25 33-39 58-33 25 7 40 33 33 58-6 21-25 34-45 34-4 0-8 0-12-1z m-206-714c0 39-13 75-34 104l-134-135c-3-3-7-4-11-4-4 0-8 1-11 4-7 7-7 16 0 23l136 136c-32 32-77 51-125 51-99 0-180-80-180-179 0-99 81-179 180-179 98 0 179 80 179 179z m400 211c116 0 210-95 210-211 0-116-94-211-211-211-116 0-210 95-210 211 0 68 32 128 83 167-24 31-49 63-69 90h-149c-8 0-15 7-15 16s7 15 15 15h156 137c14 0 53 1 72 19 6 6 10 14 10 24 0 13-4 22-11 29-15 14-41 15-50 14-9 0-17 6-17 15-1 8 6 16 14 16 2 1 46 4 74-22 14-13 21-30 21-52 0-19-7-35-20-47-26-24-69-27-87-27-4 0-7 0-7 0l-104 0c14-18 34-45 56-73 30 17 65 27 102 27z m0-390c98 0 179 80 179 179 0 99-81 179-179 179-30 0-58-7-83-20 91-120 91-120 80-131-3-3-7-5-11-5-3 0-7 1-9 3-3 2-5 5-6 8-7 10-41 56-81 108-42-33-70-84-70-142 0-99 81-179 180-179z m-696 436c-9 0-16 7-16 16s7 15 16 15h156c8 0 15-7 15-15s-7-16-15-16h-156z" horiz-adv-x="1000" />

<glyph glyph-name="uniF11D-1" unicode="&#xe818;" d="M739 849c8-2 13-10 11-19l-266-969c-2-7-8-11-15-11-1 0-2 0-3 0-1 0-2 0-3 0h-102c-69 0-128 48-141 115-5 26 3 52 20 72 17 20 42 32 68 32h200l211 770c3 8 11 13 20 10z m-378-968v0h91l43 157h-187c-17 0-34-8-45-21-11-13-15-30-12-46 10-52 56-90 110-90z m327 157c51 0 93-43 93-94 0-52-42-94-93-94-52 0-94 42-94 94s42 94 94 94z m0-157c34 0 62 28 62 63 0 34-28 62-62 62-35 0-63-28-63-62s28-63 63-63z" horiz-adv-x="1000" />

<glyph glyph-name="uniF12A-1" unicode="&#xe819;" d="M645 582c6-1 11-5 13-11s0-12-4-16l-66-67 16-96c1-6-2-12-7-15-2-2-5-3-9-3-2 0-5 1-7 2l-81 45-80-45c-6-3-12-3-17 1-5 3-8 9-7 15l16 96-66 67c-4 4-6 11-4 16 2 6 7 10 13 11l90 13 41 87c2 6 8 9 14 9s12-3 14-9l41-87z m-85-78l50 51-68 10c-6 1-10 4-13 9l-29 64-29-64c-3-5-7-8-12-9l-68-10 50-51c3-3 5-8 4-13l-12-71 59 33c3 1 5 2 8 2s5-1 8-2l59-33-12 71c-1 5 1 10 5 13z m398-521c3-5 3-12-1-17-3-5-10-8-16-6l-128 26-42-125c-2-6-7-10-13-11-1 0-1 0-2 0-6 0-11 3-14 8l-189 330c-17-3-35-5-53-5s-35 2-53 5l-189-330c-3-5-8-8-14-8 0 0-1 0-2 0-6 1-11 5-13 11l-42 125-128-26c-6-2-13 1-16 6-4 5-4 12-1 17l190 337c-41 55-65 123-65 197 0 184 149 333 333 333s333-149 333-333c0-74-24-142-65-197z m-710-79l167 291c-63 17-119 51-162 98l-166-295 108 22c8 2 15-3 18-11z m-50 613c0-167 136-302 302-302s302 135 302 302c0 166-136 301-302 301-166 0-302-135-302-301z m607-497l109-22-167 295c-43-47-99-81-162-98l167-291 35 105c3 8 10 13 18 11z" horiz-adv-x="1000" />

<glyph glyph-name="uniF107-2" unicode="&#xe81a;" d="M854 704c195-195 195-513 0-708-98-97-226-146-354-146-128 0-256 49-354 146-94 95-146 220-146 354 0 134 52 259 146 354 195 195 513 195 708 0z m112-408c15 130-24 265-118 368 0 0 0-1-1-1l-315-313 136-135c135 122 259 94 298 81z m-387-408c91 15 178 57 248 126-1 1-1 1-2 1l-157 157c-130-132-100-253-89-284z m248 798c-91 88-209 133-327 133-18 0-37-1-55-4 13-40 38-163-82-296l147-147 315 313c1 0 1 1 2 1z m-643 10l156-155c115 128 83 244 73 270-83-16-163-54-229-115z m-22-22c-66-68-108-152-124-244 34-11 152-38 281 88z m-131-324c0-122 47-237 131-324l326 324-147 146c-89-87-174-107-235-107-32 0-57 5-72 10-2-16-3-33-3-49z m153-346c102-93 235-133 364-120-14 44-37 173 97 310l-135 134z m664 32c60 66 98 146 113 228-22 9-139 46-271-71l157-155c1-1 1-2 1-2z" horiz-adv-x="1000" />

<glyph glyph-name="uniF117-1" unicode="&#xe81b;" d="M671 49c0 121 1 435 1 435l31 0s0-314 0-435c0-137-85-199-163-199-61 0-106 17-133 50-26 30-30 66-30 87h-57v0 0c-2 0-3 1-5 1-1 1-1 1-2 1 0 0-1 0-1 1-1 0-1 1-1 1-1 1-2 1-3 2 0 1-1 2-1 2-1 1-1 2-1 3-1 1-1 2-1 3 0 1 0 1 0 2 0 0 0 1 0 1 0 1 0 2 0 3 1 1 1 2 2 3 0 1 0 1 0 1l24 38c-15-8-33-12-51-12-62 0-113 51-113 113 0 13 2 26 6 38-4 3-6 7-6 13 0 8 7 15 15 15h424c9 0 16-7 16-15 0-9-7-15-15-16 4-11 6-23 6-35 0-62-51-113-113-113-15 0-29 3-41 8l21-34c0 0 0 0 1-1 0-1 0-2 1-3 0-1 0-2 0-3 0 0 1-1 1-1 0-1-1-1-1-2 0-1 0-2 0-3-1-1-1-2-2-2s-1-2-1-3c-1-1-2-1-2-2-1 0-1-1-2-1 0 0 0 0-1-1-1 0-2-1-3-1-1 0-2 0-3 0 0 0-1-1-1-1h-58c0-16 3-45 22-67 21-26 58-39 109-39 66 0 131 52 131 168z m-273-30h40l-45 70-44-70h41c2 0 5 1 7 0 0 0 1 0 1 0z m102 49c45 0 82 37 82 82 0 12-3 23-7 34h-151c-4-11-7-22-7-34 0-45 37-82 83-82z m-302 82c0-45 37-82 82-82s82 37 82 82c0 12-2 23-7 34h-150c-5-11-7-22-7-34z m273 410c-37 0-66 29-66 66 0 36 29 65 66 65 36 0 65-29 65-65 0-37-29-66-65-66z m0 100c-19 0-35-15-35-34 0-19 16-35 35-35 19 0 34 16 34 35 0 19-15 34-34 34z m91 75c-31 0-57 26-57 58s26 57 57 57c32 0 58-26 58-57 0-32-26-58-58-58z m0 84c-14 0-26-12-26-26s12-26 26-26c15 0 27 11 27 26s-12 26-27 26z m189-78c45 0 82-36 82-82s-37-82-82-82c-45 0-82 37-82 82s37 82 82 82z m0-133c28 0 51 23 51 51s-23 51-51 51c-28 0-51-23-51-51s23-51 51-51z" horiz-adv-x="1000" />

<glyph glyph-name="uniF10F-1" unicode="&#xe81c;" d="M866 673c17-12 26-32 26-53v0c0-21-10-42-27-54-12-9-26-14-41-14-6 0-12 1-18 2l-93 27c-7 2-12 8-12 15v7h-372c-1 0-2 1-3 1l-12-54 69-224 82 66-4 3c-5 5-6 13-3 19l48 86c10 18 29 31 49 34 21 3 42-4 57-19 0 0 0 0 0 0 15-15 22-37 19-58-3-21-16-39-34-50l-85-47c-2-1-5-2-8-2-4 0-8 2-11 5l-6 6-103-82c-3-2-6-3-10-3-1 0-3 0-4 0-5 2-9 6-11 11l-58 193-47-208 111-178c2-3 3-7 2-11l-46-228c-1-8-8-13-15-13-1 0-2 0-3 0-9 2-14 10-12 19l44 222-82 131v-128c0-2 0-5-1-7l-115-228c-2-6-8-9-14-9-2 0-4 1-7 2-7 4-11 13-7 21l113 225v179c0 0 0 1 0 1 0 1 0 1 0 2l60 271c0 2 1 4 2 6l29 131c-14 7-26 18-34 32-24 42-9 95 32 118v0c20 12 43 15 66 9 22-6 41-20 52-40 24-42 10-95-32-119-13-7-28-11-43-11-4 0-7 0-11 1l-10-43h368v7c0 7 5 13 12 15l94 27c20 6 42 2 59-11z m-332-188l-42-76 4-4c2-1 4-3 5-4 0-1 0-1 1-2l5-5 74 41c10 5 17 15 19 27 2 11-2 22-10 30 0 1-1 1-1 1-7 8-18 11-29 10-11-2-21-8-26-18z m-207 326c-27-15-36-49-21-75 8-13 20-22 34-26 14-4 29-2 42 6 26 15 35 49 20 75-7 13-19 22-34 26-14 3-29 2-41-6z m534-191v0c0 11-5 22-14 28-9 7-20 9-31 6l-83-24v-22l81-23c11-3 23-1 32 6 9 7 15 18 15 29z" horiz-adv-x="1000" />

<glyph glyph-name="uniF128-1" unicode="&#xe81d;" d="M489 278c73 0 133-60 133-133s-60-133-133-133c-73 0-133 60-133 133s60 133 133 133z m0-235c56 0 102 46 102 102 0 56-46 101-102 101-56 0-101-45-101-101 0-56 45-102 101-102z m488 671c25-18 31-53 12-78-69-95-274-377-282-388 13-34 11-73-6-103 20-36 20-83-2-121-22-38-63-62-104-63-21-35-62-58-106-58-44 0-85 23-106 58-41 1-82 25-104 63-21 38-22 85-2 121-20 36-19 83 2 121 1 0 1 1 2 2l-270 367c-19 25-13 61 12 79l109 80c4 3 9 4 14 3 1 0 3 0 4 0h708c1 0 2 0 2 0 1 0 2 0 3-1 1 0 2 0 3-1 1 0 1 0 2-1z m-368-387c0 0 0 0 0 0 66 90 279 374 299 399l-46 34-295-400c11-9 21-19 28-32 5 0 9 0 14-1z m-155 55c11 3 23 5 35 5 18 0 35-4 51-11l155 210h-391z m264 236l109 148h-655l110-149c0 0 1 1 2 1h434z m-580 142l-44-32c10-12 220-293 294-392 10 13 22 25 37 33z m-96-71c-12-8-14-24-6-35l265-361c16 16 35 27 56 32-87 117-279 373-287 382 0 1-1 2-1 2z m628-553c-4 5-4 12 0 18 19 27 19 66 2 96-18 31-52 50-85 47-7-1-13 3-15 9-14 30-47 50-83 50-35 0-69-20-82-50-3-6-9-10-16-9-33 3-67-16-84-47-18-30-17-69 2-96 3-6 3-13 0-18-19-27-20-66-2-97 17-30 51-49 84-46 0 0 1 0 1 0 6 0 12-4 15-9 13-30 47-50 82-50s69 20 83 50c2 6 9 9 15 9 33-3 67 16 85 46 17 31 17 70-2 97z m294 518c8 11 6 27-5 35l-26 19c0 0 0-1 0-1-9-10-207-275-292-389 19-8 37-22 50-40 41 57 211 292 273 376z" horiz-adv-x="1000" />

<glyph glyph-name="uniF122-1" unicode="&#xe81e;" d="M985 245c8 0 15-7 15-15 0-67-21-121-61-158-59-55-143-61-175-61-7 0-11 0-12 0l-736 0c-9 0-16 7-16 16s7 15 16 15h226v89h-70c-46 0-89 18-122 51-32 32-50 75-50 121v370c0 9 7 16 16 16h266c5 0 11-3 13-8l100-171c29-49 82-79 139-79 21 0 43 0 65-1 105 0 198-70 227-170 2-2 4-5 4-8 7-29 1-60-18-83-19-24-47-38-77-38h0-100v-89h118c2 0 102-6 165 52 34 32 51 78 51 136 0 8 7 15 16 15z m-913-41c27-27 62-42 100-42h563 0c20 0 40 10 52 26 12 15 17 33 14 51-2 2-3 5-3 7-1 0-1 0-1 0-24 90-105 153-198 153-22 1-45 1-65 1-51 0-98 20-134 54-2-1-4-2-7-2h-105c-9 0-16 7-16 16 0 8 7 15 16 15h88c-3 4-5 8-8 12l-25 42c-2-3-7-6-11-6h-106c-8 0-15 7-15 16s7 16 15 16h102l-55 95h-242v-355c0-38 15-73 41-99z m202-73v-89h330v89h-330z" horiz-adv-x="1000" />

<glyph glyph-name="uniF10E-1" unicode="&#xe81f;" d="M898 423c47-158 36-329-33-479-1-2-2-4-4-5-1-1-2-2-3-3-26-13-51-19-75-19-25 0-50 6-73 19-2 1-3 2-4 3-1 1-2 3-3 5-27 58-45 119-54 181-7-86-28-170-65-250-1-4-4-6-8-8-27-11-54-17-80-17-26 0-52 6-76 17-3 2-6 5-7 8-35 76-56 157-64 239-10-58-27-116-52-170-2-4-4-6-7-8-25-13-50-19-75-19-25 0-49 6-73 19-3 2-5 5-7 8-69 150-80 321-32 479l21 72c14 44 20 89 20 135 0 35-6 71-16 104-2 7-4 15-4 24 0 51 42 92 92 92 51 0 92-41 92-92 0-8-1-17-4-25-10-35-15-71-15-107 0-1 0-3 0-4 0-42 6-83 18-123l23-76c13-42 21-85 25-128 6 33 13 65 22 96l24 80c14 45 21 93 21 141 0 39-6 78-17 115-3 7-4 16-4 25 0 54 44 98 98 98s97-44 97-98c0-9-1-18-4-27-10-38-16-77-16-117 0-1 0-2 0-4 0-44 7-88 19-130l25-83c11-35 19-71 24-107 4 47 12 93 26 139l22 72c13 44 20 89 20 135-1 35-6 70-16 104-3 7-4 15-4 24 0 51 41 92 92 92 50 0 91-41 91-92 0-8-1-17-3-25-10-35-15-71-15-107 0-1 0-2 0-4 0-42 6-83 18-123z m-682 396c-33 0-60-27-60-61 0-5 0-10 2-14 11-37 17-75 17-114 0-37-4-75-12-111h107c-8 35-12 71-12 107 0 2 0 3 0 4 0 38 6 75 16 111 2 6 3 12 3 17 0 34-28 61-61 61z m55-857c64 142 74 303 29 452l-22 74h-123c-1-1-1-1-1-2l-22-72c-45-149-34-310 30-453 35-18 71-18 109 1z m228 857c-37 0-67-30-67-67 0-5 1-10 3-15 12-41 18-83 18-125 0-27-2-55-6-82h104c-4 26-7 52-7 78 0 2 1 3 1 5 0 41 6 82 17 121 2 6 3 12 3 18 0 37-30 67-66 67z m60-925c68 154 80 327 31 488l-25 83c-3 11-6 23-8 34h-116c-3-12-6-25-10-37l-24-80c-49-161-37-335 32-489 37-16 76-16 120 1z m225 925c-34 0-61-27-61-61 0-5 1-10 3-14 11-37 17-75 17-114 0-37-4-75-13-111h108c-8 35-13 71-13 107 0 2 0 3 1 4 0 38 6 75 16 111 1 6 2 12 2 17 0 34-27 61-60 61z m54-857c64 142 75 303 30 452l-22 74h-124c0-1 0-1 0-2l-22-72c-45-149-35-310 29-453 36-18 71-18 109 1z" horiz-adv-x="1000" />

<glyph glyph-name="uniF120-1" unicode="&#xe820;" d="M983 180c15-16 20-37 15-58 0 0 0 0 0 0-10-45-50-77-97-77h-209c0 0 0 0-1 0-1 0-2 1-3 1-1 0-1 0-2 0 0 1-1 1-2 1 0 1-1 1-1 1-1 1-1 1-2 2 0 0-1 1-1 2-1 0-1 0-1 1l-179 291-179-291c0-1 0-1-1-1 0-1 0-2-1-2-1-1-1-1-2-2 0 0-1 0-1-1-1 0-2 0-2-1-1 0-1 0-2 0-1 0-2-1-3-1 0 0-1 0-1 0h-209c-47 0-87 32-97 77 0 0 0 0 0 0-5 21 1 42 15 58 14 16 35 24 56 22l285-30 124 201-245 399c-4 7-2 17 5 21 8 5 17 2 22-5l236-385 236 385c5 7 14 10 22 5 7-4 9-14 5-21l-245-399 124-201 285 30c21 2 42-6 56-22z m-951-51c7-31 35-52 67-52h200l41 66-270 28c-12 1-23-4-30-12-7-8-10-19-8-29 0-1 0-1 0-1z m936 1c2 10-1 21-8 29-7 8-18 13-30 12l-269-28 40-66h200c32 0 60 21 67 52 0 0 0 0 0 1z m-468-100c62 0 109-27 109-63s-47-62-109-62-109 26-109 62 47 63 109 63z m0-94c48 0 78 18 78 31 0 13-30 31-78 31s-78-18-78-31c0-13 30-31 78-31z" horiz-adv-x="1000" />

<glyph glyph-name="uniF111-1" unicode="&#xe821;" d="M764 187c51 0 94-42 94-93 0-52-42-94-94-94s-94 42-94 94 42 93 94 93z m0-156c34 0 62 28 62 63 0 34-28 62-62 62-35 0-63-28-63-62 0-35 28-63 63-63z m18 718c5-18 2-36-7-52l-279-483c-15-26-37-46-64-59l-122-58-138-239c-3-5-8-8-14-8-2 0-5 1-8 2-7 4-10 14-5 21l134 234-8 143c-2 28 5 56 19 81l280 486c9 15 24 26 41 31 17 4 35 2 51-7l88-51c16-9 27-24 32-41z m-34-36c5 8 6 18 4 28-3 9-9 17-17 22l-89 51c-5 3-11 5-18 5-3 0-6-1-9-1-9-3-17-9-22-17l-280-486c-11-19-16-41-15-64l7-119 110 51c21 10 38 26 50 46z" horiz-adv-x="1000" />

<glyph glyph-name="uniF121-1" unicode="&#xe822;" d="M500 850c176 0 320-143 320-319 0-99-47-194-125-254-3-2-6-3-10-3h-7l-73-267c9-1 15-8 15-16v-125c0-9-7-16-16-16h-208c-9 0-16 7-16 16v125c0 9 7 16 16 16h2l-73 267h-10c-4 0-7 1-10 3-78 60-125 155-125 254 0 176 144 319 320 319z m91-46c0 0 0 0 0 0-24 8-49 13-75 14v-513h80c98 151 97 314-5 499z m-187-499h80v513c-26-1-51-6-75-14 0 0 0 0 0 0-101-185-103-348-5-499z m-192 226c0-88 40-172 108-226h47c-88 147-89 305-3 480-90-49-152-145-152-254z m146-257l72-267h54v267h-126z m231-393v94h-178v-94h178z m-16 126l72 267h-129v-267h57z m107 298c68 54 108 138 108 226 0 109-61 205-152 254 86-175 85-333-3-480h47z" horiz-adv-x="1000" />

<glyph glyph-name="uniF12E-1" unicode="&#xe823;" d="M803 21c39 0 71-32 71-71 0-38-32-70-71-70-39 0-70 32-70 70 0 39 31 71 70 71z m0-110c22 0 39 18 39 39s-17 40-39 40c-21 0-39-18-39-40s18-39 39-39z m-531 549c0 39 32 70 70 70 39 0 71-31 71-70 0-39-32-70-71-70-38 0-70 31-70 70z m109 0c0 21-17 39-39 39s-39-18-39-39c0-22 18-39 39-39s39 17 39 39z m-41 145c0-38-32-70-70-70-39 0-71 32-71 70s32 71 71 71c38 0 70-32 70-71z m-109 0c0-21 17-39 39-39s39 18 39 39-18 39-39 39-39-17-39-39z m36 146c0-39-31-70-70-70-39 0-70 31-70 70s31 70 70 70c39 0 70-31 70-70z m-70-39c21 0 39 17 39 39 0 21-18 39-39 39-22 0-39-18-39-39 0-22 17-39 39-39z m291-31c-39 0-70 31-70 70s31 70 70 70c39 0 70-31 70-70s-31-70-70-70z m0 109c-22 0-39-18-39-39 0-22 17-39 39-39s39 17 39 39c0 21-18 39-39 39z m-143-185c0 39 31 71 70 71s70-32 70-71-31-70-70-70c-39 0-70 32-70 70z m70 39c-21 0-39-17-39-39s18-39 39-39 39 18 39 39-17 39-39 39z m-73 37c-38 0-70 31-70 70s32 70 70 70c39 0 71-31 71-70s-32-70-71-70z m0 109c-21 0-39-18-39-39 0-22 18-39 39-39s39 17 39 39c0 21-17 39-39 39z m526 13c2-4 1-8-1-12l-539-933c-2-4-5-6-9-8-2 0-3 0-4 0-3 0-6 1-8 2l-63 36c-8 5-10 14-6 22l175 304c0 0 0 0 0 0 0 0 0 0 0 0l363 628c5 8 14 10 22 6l63-36c4-2 6-5 7-9z m-559-916l160 277-36 20-160-276z m175 304l348 602-36 20-348-601z" horiz-adv-x="1000" />

<glyph glyph-name="uniF102-2" unicode="&#xe824;" d="M859 381c9 0 16-7 16-15v-500c0-9-7-16-16-16h-253c-9 0-16 7-16 16v153c0 26-11 52-30 71-19 19-45 29-72 29h-39c-26 0-50-9-69-26-20-19-32-45-32-73v-154c0-9-7-16-16-16h-254c-8 0-15 7-15 16v500c0 8 7 15 15 15h375v235 218c0 2 1 4 1 6 0 0 1 1 1 1 0 2 1 3 3 4 0 0 0 1 0 1 1 0 1 1 2 1 1 1 1 1 2 1 0 1 1 1 1 1 2 1 3 1 5 1 0 0 1 0 1 0 0 0 0 0 0 0 2 0 4 0 5-1l282-109c6-3 10-8 10-15s-4-12-10-15l-272-105v-224h375z m-375 258l223 86-223 87v-173z m360-289h-750v-78h750v78z m-223-469h223v360h-750v-360h222v139c0 37 16 72 43 96 25 22 57 35 90 35h39c35 0 69-14 94-39 25-24 39-58 39-93v-138z" horiz-adv-x="1000" />

<glyph glyph-name="uniF106-2" unicode="&#xe825;" d="M993 717c1-9-1-18-6-25-60-85-238-322-238-322l-34-55c2-3 3-8 2-12 0-2-1-4-2-5-1-1-1-2-1-3-3-5-9-8-14-8 0 0-1 1-2 1l-17-28 16-10-17-28-63 38 17 28 16-9 13 21-247 58c-7 2-12 8-12 15v148l-106-226 157-192c4-5 5-12 2-17l-82-165h97c9 0 16-7 16-15 0-9-7-16-16-16h-117c0 0-1 0-2 0-1 0-2 0-3 0-3 0-5 0-7 1-8 4-11 14-7 22l89 178-137 167-40-146c-1-3-3-6-5-8l-196-174 69-52c7-5 8-15 3-22-3-4-8-6-12-6-4 0-7 1-10 3l-84 63c-1 1-1 1-1 2-1 0-1 0-2 1 0 0 0 0 0 1-1 1-1 2-2 3 0 1-1 1-1 2 0 1 0 2 0 3 0 1 0 2 0 3 0 1 0 2 1 3 0 1 0 2 1 3 0 0 0 1 1 1 0 1 0 1 1 1 0 1 0 1 1 2l207 184 45 166c0 1 0 2 0 3 0 1 0 2 1 3 0 1 0 1 0 2l3 6 0 1c1 2 2 4 3 6l151 322c-14 10-24 23-30 40-16 45 7 94 51 110 22 8 45 7 66-3 21-10 36-27 44-49 8-21 7-45-3-65-10-21-27-37-49-44-9-4-19-6-29-6-7 0-14 2-22 4l-13-29c0 0 0 0 0-1l88-160 158-99 35 57s130 266 179 358c4 8 11 14 19 17 3 1 7 2 10 2 5 0 9-1 13-4 13-8 29-18 42-26 7-4 11-11 12-19z m-539 38c-28-11-43-42-33-70 10-28 41-43 70-33 13 5 24 15 31 28 6 13 6 28 2 42s-15 24-29 31c-7 3-15 5-23 5-6 0-12-1-18-3v0z m-19-225v-144l166-39-96 60c-2 1-4 3-6 6z m526 180c0 1 0 1 1 2l-28 17-8 5c-1-1-1-1-1-2-26-48-75-147-116-229 54 73 120 162 152 207z m-195 30c-31 0-55 25-55 55 0 30 24 55 55 55 30 0 55-25 55-55 0-30-25-55-55-55z m0 79c-13 0-24-11-24-24 0-13 11-23 24-23 13 0 23 10 23 23 0 13-10 24-23 24z" horiz-adv-x="1000" />

<glyph glyph-name="uniF113-1" unicode="&#xe826;" d="M500 850c276 0 500-224 500-500s-224-500-500-500-500 224-500 500 224 500 500 500z m0-969c259 0 469 211 469 469s-210 469-469 469-469-210-469-469 211-469 469-469z m188 484c8 0 15-7 15-15 0-112-91-203-203-203s-203 91-203 203 91 203 203 203c8 0 15-7 15-15s-7-16-15-16c-95 0-172-77-172-172s77-172 172-172 172 77 172 172c0 8 7 15 16 15z m50 150c9 0 16-7 16-16s-7-16-16-16h-83l-29-29h52c9 0 16-7 16-15 0-9-7-16-16-16h-83l-19-20c10-15 17-33 17-53 0-51-42-93-93-93-51 0-93 42-93 93 0 51 42 93 93 93 20 0 38-7 53-17l20 19v83c0 9 7 16 16 16s15-7 15-16v-52l29 29v83c0 9 7 16 16 16s16-7 16-16v-51l35 35c6 6 16 6 22 0 6-6 6-16 0-22l-35-35h51z m-174-165c0 12-4 23-9 32l-44-43c-3-3-7-5-11-5s-8 2-11 5c-6 6-6 16 0 22l43 44c-9 5-20 9-32 9-35 0-64-29-64-64s29-64 64-64 64 29 64 64z" horiz-adv-x="1000" />

<glyph glyph-name="uniF105-2" unicode="&#xe827;" d="M976 742c16-16 25-38 24-61-1-22-11-43-28-58-153-132-603-491-623-507l-173-173 20-20c3-3 4-7 4-11s-1-8-4-11l-46-46c-3-3-7-5-11-5s-8 2-11 5l-123 123c-3 3-5 7-5 11s2 8 5 11l46 46c6 6 16 6 22 0l20-20 172 173c17 20 376 469 507 623 15 17 37 27 59 28 23 1 45-8 61-24z m-833-810c-6 6-6 15 0 22l158 158-35 35c-2 1-3 3-3 5l-159-159c-6-6-17-6-22 0l-20 20-24-24 101-101 24 24z m808 715c11 9 17 22 18 35 0 14-5 28-15 38l-84 84c-10 10-24 15-38 15-14-1-27-7-36-18-134-155-503-617-507-622 0-1 0-1-1-1l-5-6c2 0 4-1 5-3l35-35 5 4c0 1 0 1 1 1 4 4 467 374 622 508z m-754-115c-86 0-157 70-157 157 0 87 71 157 157 157 87 0 157-70 157-157 0-87-70-157-157-157z m126 157c0 31-11 59-30 81-35-58-35-111 0-162 18 22 30 50 30 81z m-53 102c-21 15-46 24-73 24-26 0-51-8-71-22 48-73 48-143 1-208 20-14 44-22 70-22 27 0 52 9 73 23-46 65-46 134 0 205z m-167-19c-20-22-32-51-32-83 0-32 12-61 32-83 37 52 37 107 0 166z" horiz-adv-x="1000" />

<glyph glyph-name="uniF10A-1" unicode="&#xe828;" d="M397 456c18-5 33-17 43-33 9-16 11-35 7-54-6-21-21-37-39-45 21-21 31-53 22-84-10-38-45-63-83-63-7 0-14 1-22 3-46 12-73 59-61 105 8 30 31 52 59 60-13 17-18 39-12 61 10 37 48 60 86 50z m3-207c8 29-9 59-38 66-5 2-10 2-15 2-24 0-46-16-52-40-8-29 9-59 38-67 29-8 59 9 67 39z m16 129c3 10 2 20-4 29-5 9-13 16-23 18-4 1-7 2-10 2-18 0-33-12-38-29-6-21 7-42 28-48 20-6 42 7 47 28z m41 188c140-38 224-184 186-325-18-69-62-127-123-162-41-23-85-35-130-35-23 0-46 3-69 9-140 38-223 184-186 325 19 69 63 127 124 162 60 35 131 44 198 26z m156-317c33 125-40 253-164 287-20 5-40 8-60 8-40 0-79-10-115-31-54-31-92-82-108-143-34-125 40-253 163-287 60-16 122-8 175 23 54 31 93 82 109 143z m-113 601c276 0 500-224 500-500 0-276-224-500-500-500-276 0-500 224-500 500s224 500 500 500z m0-969c259 0 469 211 469 469s-210 469-469 469-469-210-469-469 211-469 469-469z m354 606c3-8-1-17-9-20-1-1-3-1-5-1-7 0-12 4-15 10-40 101-91 176-208 209-9 2-13 11-11 19 2 9 11 14 19 11 137-39 191-132 229-228z" horiz-adv-x="1000" />

<glyph glyph-name="uniF119-1" unicode="&#xe829;" d="M890 440c2-8-2-16-9-19-112-43-171-28-233-11-35 9-71 19-121 18-171-1-238-102-278-166l106-392c3-9-2-17-11-19-1-1-2-1-4-1-7 0-13 5-15 12l-215 797c-1 3-1 5 0 7 0 1 0 1 0 2 1 1 1 3 2 4 0 0 0 1 1 1 67 88 150 171 345 137 100-18 180-25 302 38 4 2 9 3 14 1 4-2 7-6 9-11z m-234 0c57-15 106-28 200 5l-99 367c-121-59-206-50-304-33-174 30-247-38-311-119l46-169 50-188c46 68 122 155 289 156 54 1 94-10 129-19z" horiz-adv-x="1000" />

<glyph glyph-name="uniF118-1" unicode="&#xe82a;" d="M995 816l-473-474 192-192c71 61 175 69 254 17 4-2 6-7 7-11 0-5-2-10-5-13l-124-124 134-135c6-6 6-16 0-22-3-3-7-4-11-4s-8 1-11 4l-134 135-125-125c-3-3-7-4-11-4 0 0-1 0-2 0-4 0-8 3-11 7-52 78-44 183 17 253l-192 192-192-192c61-70 69-175 17-253-2-4-7-7-11-7-1 0-1 0-2 0-4 0-8 1-11 4l-124 125-135-135c-3-3-7-4-11-4s-8 1-11 4c-6 6-6 16 0 22l134 135-124 124c-3 3-5 8-4 13 0 5 3 9 7 11 78 52 183 44 253-17l192 192-473 474c-7 6-7 16 0 22s16 6 22 0l473-474 473 474c6 6 16 6 22 0s7-16 0-22z m-686-907c35 68 22 153-33 209-56 55-141 68-210 33z m543 261c-47 0-93-18-128-52-55-56-68-141-33-209l243 242c-26 13-54 19-82 19z" horiz-adv-x="1000" />

<glyph glyph-name="uniF10B-1" unicode="&#xe82b;" d="M984 22c9 0 16-7 16-15 0-9-7-16-16-16h-42-344-43c-8 0-15 7-15 16 0 8 7 15 15 15h31l82 330v47h-154v-27c0-9-7-16-16-16s-15 7-15 16v27h-151v-47l82-330h31c8 0 15-7 15-15 0-9-7-16-15-16h-43-343-43c-9 0-16 7-16 16 0 8 7 15 16 15h30l83 330v326h-28c-8 0-15 7-15 15 0 9 7 16 15 16h43 172 43c9 0 16-7 16-16 0-8-7-15-16-15h-27v-119h336v119h-24c-8 0-15 7-15 15 0 9 7 16 15 16h40 172 39c9 0 16-7 16-16 0-8-7-15-16-15h-24v-326l83-330h30z m-684 656h-140v-312h140v48 129 135z m-221-656v0h303l-78 312h-147z m253 408h151v98h-151v-98z m333 0v98h-151v-98h151z m175 248h-140v-312h140v312z m-222-656v0h304l-79 312h-147z" horiz-adv-x="1000" />

<glyph glyph-name="uniF123-1" unicode="&#xe82c;" d="M945 526c31 0 55-25 55-55 0-30-24-55-55-55-24 0-44 16-51 38-151-105-200-229-154-389h5c29 0 52-21 52-47 0-26-23-47-52-47h-474c-29 0-52 21-52 47 0 26 23 47 52 47h0c18 192-30 241-180 397-10-9-22-14-36-14-30 0-55 24-55 54 0 30 25 55 55 55s54-25 54-55c0-3 0-6 0-9 6-1 13-2 20-4 100-19 189-36 246-119 6 168 81 275 205 289-1 3-1 5-1 8 0 34 28 62 63 62 34 0 62-28 62-62s-28-63-62-63c-18 0-34 8-45 19-1-2-2-4-3-7-31-81-56-147-6-260 101 185 251 164 312 145 10 15 26 25 45 25z m-303 172c-18 0-32-14-32-31s14-32 32-32 31 14 31 32-14 31-31 31z m-587-219c13 0 23 10 23 23s-10 24-23 24-24-11-24-24 11-23 24-23z m637-305h-65l72-73c-4 25-7 50-7 73z m-366-108h153l-78 78z m214 0h150l-77 78z m-30 13l89 95h-184z m-206 10l83 85h-83c2-25 2-53 0-85z m462-71c0 8-10 15-21 15h-474c-11 0-21-7-21-15s10-16 21-16h474c11 0 21 7 21 16z m-72 187c10 105 68 195 177 272-69 15-188 10-269-163-3-6-8-9-14-9-5 0-11 3-14 8-74 143-45 222-10 312-111-23-169-141-156-321 1-8-5-15-12-17-8-1-16 3-18 10-43 116-125 137-237 158 93-97 144-156 159-250h394z m251 243c13 0 24 10 24 23s-11 23-24 23-23-10-23-23 10-23 23-23z" horiz-adv-x="1000" />

<glyph glyph-name="uniF11A-1" unicode="&#xe82d;" d="M500 850c276 0 500-224 500-500s-224-500-500-500-500 224-500 500 224 500 500 500z m463-574c4 24 6 49 6 74 0 52-9 103-25 150l-42-123z m-118-243c51 55 89 123 108 198l-81 136c-1 1-2 3-2 5h-132l-139-214 86-144c1-1 2-3 2-5l151 24c3 1 5 0 7 0z m-158-56l-63-79c69 19 131 53 183 98z m-489 731l-17-114 139-74c1 0 1-1 2-2l223 86 34 127-86 82c-2 1-3 3-4 6-111-3-212-44-291-111z m402 46l105 18c-53 25-111 41-172 46z m-257-509l235-63 132 204-153 189-227-87z m584 299c-39 85-102 156-181 205-2-2-5-3-7-3l-130-22-33-123 161-198h141l47 138c1 1 1 2 2 3z m-766 129c-41-42-74-93-96-149l84 62z m-113-200c-11-39-17-80-17-123 0-68 15-133 42-192 0 0 1 0 1 0l116-50c0 1 1 2 2 3l120 120c0 0 0 0 0 1l-14 264-127 68-121-90c-1 0-2-1-2-1z m47-358c37-64 88-118 149-158l-64 121z m199-186c63-31 132-48 206-48 26 0 51 2 76 6l85 108c-1 1-2 2-2 3l-93 155-227 60-125-124c-1-1-2-1-4-2l83-155c1-1 1-2 1-3z" horiz-adv-x="1000" />

<glyph glyph-name="uniF131-1" unicode="&#xe82e;" d="M996 353c5-32 13-110-26-156-19-22-47-34-81-34h-684c-54 0-106 22-145 59-39 38-60 88-60 142v440l16 15h323l13-7 122-203c35-59 100-96 171-96 25 0 52 0 79-1 163 0 254-53 272-159z m-914-109c32-32 77-50 123-50h466v288c-9 0-18 0-26 0-70 0-136 31-179 83 0 0 0 0 0 0h-128c-8 0-15 7-15 16 0 9 7 16 15 16h107l-30 49h-119c-9 0-16 7-16 15 0 9 7 16 16 16h101l-67 111h-299v-424c0-45 18-88 51-120z m864-27c32 37 23 110 19 131-15 90-93 133-241 133-7 0-13 0-19 0v-287h184c25 0 44 8 57 23z m-712-84c70 0 126-57 126-126 0-70-56-126-126-126-69 0-126 56-126 126 0 69 57 126 126 126z m0-219c51 0 93 42 93 93 0 51-42 93-93 93-51 0-92-42-92-93 0-51 41-93 92-93z m532 219c69 0 126-57 126-126 0-70-57-126-126-126-70 0-126 56-126 126 0 69 56 126 126 126z m0-219c51 0 92 42 92 93 0 51-41 93-92 93-51 0-93-42-93-93 0-51 42-93 93-93z" horiz-adv-x="1000" />

<glyph glyph-name="uniF125-1" unicode="&#xe82f;" d="M932 198c-26-49-72-101-134-155h50c31 0 56-24 56-55v-52c0-30-25-55-56-55h-696c-31 0-56 25-56 55v52c0 31 25 55 56 55h50c-62 54-107 106-134 156-92 159-91 321 4 402 50 44 123 63 196 53 59-9 111-38 151-81v2c0 40 29 73 67 80v66h-48c-9 0-16 7-16 16 0 9 7 16 16 16h48v49c0 9 8 17 17 17 9 0 16-8 16-17v-49h48c9 0 17-7 17-16 0-9-8-16-17-16h-48v-67c36-9 62-41 62-79v-2c40 43 92 72 151 81 73 10 146-9 197-53 94-81 95-243 3-403z m-432 426c-27 0-48-22-48-49v-532h97v532c0 26-20 47-45 49-1 0-1 0-1 0-1 0-2 0-2 0-1 0-1 0-1 0z m-404-410c29-53 81-111 156-171h167v478c-36 56-91 92-156 101-63 9-128-8-171-45-82-71-80-217 4-363z m775-226c0 13-10 23-23 23h-696c-13 0-23-10-23-23v-52c0-12 10-22 23-22h696c13 0 23 10 23 22v52z m-123 55c75 60 128 118 156 171 85 146 86 292 4 363-43 37-108 54-171 45-64-9-120-45-156-101v-478h167z m-565 509c74 26 131-21 134-23 7-6 7-16 2-23-6-7-16-8-23-2-2 2-46 37-102 18-30-11-49-26-59-46-13-27-3-56-3-56 4-8-1-18-9-21-2 0-4-1-6-1-6 0-12 4-15 11 0 1-15 41 4 81 13 28 39 49 77 62z m304-590c0 11 5 16 16 16 11 0 16-5 16-16 0-11-5-16-16-16-11 0-16 5-16 16z m0 229c0 11 5 16 16 16 11 0 16-5 16-16 0-11-5-16-16-16-11 0-16 5-16 16z m0 130c0 11 5 17 16 17 11 0 16-6 16-17s-5-16-16-16c-11 0-16 6-16 16z m0 131c0 11 5 16 16 16 11 0 16-5 16-16 0-11-5-16-16-16-11 0-16 5-16 16z m-215-490c0 11 5 16 16 16 11 0 16-5 16-16 0-11-5-16-16-16-11 0-16 5-16 16z m435 0c0 11 6 16 16 16s16-5 16-16c0-11-5-16-16-16-10 0-16 5-16 16z" horiz-adv-x="1000" />

<glyph glyph-name="uniF129-1" unicode="&#xe830;" d="M486 216c3 6 8 9 14 9s12-3 14-9l31-64 67-11c6-1 10-5 12-10 2-6 1-12-3-16l-49-51 11-71c1-6-1-12-6-15-3-2-6-3-9-3-3 0-5 1-8 2l-60 33-60-33c-5-3-12-3-17 1-4 3-7 9-6 15l11 71-49 51c-4 4-5 10-3 16 2 5 6 9 12 10l67 11z m34-85l-20 42-20-42c-2-5-6-8-12-9l-45-7 33-34c4-4 5-9 4-14l-7-47 40 21c2 2 4 2 7 2s5 0 8-2l39-21-7 47c-1 5 1 10 4 14l33 34-45 7c-5 1-10 4-12 9z m230 719c9 0 16-7 16-16s-7-15-16-15h-67l36-253c0-5-1-10-5-13-4-5-110-108-198-165v-39c130-8 234-116 234-249 0-138-112-250-250-250s-250 112-250 250c0 133 104 241 234 249v39c-88 57-193 160-198 165-4 3-5 8-5 13l36 253h-67c-9 0-16 7-16 15s7 16 16 16h85 330 85z m-401-31l-35-249c13-13 50-48 92-84v333h-57z m89-358c15-12 31-24 46-35v393h-46v-358z m281-361c0 121-98 219-219 219-121 0-219-98-219-219s98-219 219-219 219 98 219 219z m-203 719v-393c15 11 31 23 47 35v358h-47z m171-249l-36 249h-57v-333c43 36 79 71 93 84z" horiz-adv-x="1000" />

<glyph glyph-name="uniF130-1" unicode="&#xe831;" d="M938 788c35 0 64-29 64-64 0-35-29-63-64-63-5 0-11 1-16 2 0 0 0-1 0-1l-149-455h25c8 0 14-6 14-14v-62c0-8-6-15-14-15h-594c-8 0-14 7-14 15v62c0 8 6 14 14 14h25l-149 455c0 0 0 1 0 1-6-1-11-2-17-2-35 0-63 28-63 63 0 35 28 64 63 64 35 0 64-29 64-64 0-18-9-35-21-46l260-214 118 262c-26 7-46 32-46 61 0 35 28 63 63 63 35 0 63-28 63-63 0-29-20-54-47-61l119-262 260 214c-13 11-21 28-21 46 0 35 28 64 63 64z m-905-64c0-17 14-30 30-30 17 0 31 13 31 30 0 17-14 31-31 31-16 0-30-14-30-31z m750-579v34h-565v-34h565z m-313 642c0-17 14-31 31-31 17 0 30 14 30 31 0 17-13 30-30 30-17 0-31-13-31-30z m271-578l135 412-236-194c-4-3-9-4-13-3-5 1-9 5-11 9l-115 254-115-254c-2-4-6-8-11-9-5-1-10 0-13 3l-236 194 135-412h480z m197 485c17 0 31 13 31 30 0 17-14 31-31 31-16 0-30-14-30-31 0-17 14-30 30-30z" horiz-adv-x="1000" />

<glyph glyph-name="uniF103-2" unicode="&#xe832;" d="M996 340c0-1 0-1-1-1-1-1-2-2-4-3l-84-42c-2-1-4-2-7-2-6 0-11 3-14 9-4 8-1 17 7 21l25 12h-108c-3-71-23-141-61-201-76-125-209-199-354-199-6 0-12 4-14 9-87 173-150 347-166 391h-54l-58-58c-3-3-7-5-11-5s-8 2-11 5c-6 6-6 16 0 22l36 36h-32l-58-58c-3-3-7-5-11-5s-8 2-11 5c-7 6-7 16 0 22l52 52-52 52c-7 6-7 16 0 22s16 6 22 0l58-58h32l-36 36c-6 6-6 16 0 22s16 6 22 0l58-58h54c16 44 79 221 166 391 2 6 8 9 14 9 145 0 278-74 354-198 38-61 58-131 61-202h108l-25 12c-8 4-11 13-7 21 4 8 13 11 21 7l84-42c2-1 3-2 4-3 1 0 1 0 1-1 1-1 2-2 2-3 1-1 1-1 1-2 1-1 1-3 1-5s0-4-1-5c0-1 0-1-1-2 0-1-1-2-2-3z m-592 394c-78-154-136-313-156-368h531c-3 65-22 129-56 185-69 112-188 180-319 183z m319-585c34 56 53 120 56 185h-531c20-54 78-211 156-368 131 3 250 71 319 183z" horiz-adv-x="1000" />

<glyph glyph-name="uniF11C-1" unicode="&#xe833;" d="M999 579c2-4 1-8-1-12l-74-149c-4-7-12-11-19-8l-147 49v-426c0-8-7-15-16-15h-484c-9 0-16 7-16 15v426l-147-49c-7-3-15 1-19 8l-74 149c-2 4-3 8-1 12 2 4 5 8 9 9l242 93c2 1 4 1 6 1h99c7 0 13-4 15-11 16-57 69-97 128-97 59 0 112 40 128 97 2 7 8 11 15 11h99c2 0 4 0 6-1l242-93c4-1 7-5 9-9z m-962-14l61-121 34 11c0 0 0 0 0 1l-54 125z m236-348v-32h454v31h-450c-1 0-2 0-4 1z m0-168h454v104h-454v-104z m474 446l92-30c0 1 0 2 1 3l53 124-154 59h-84c-24-64-86-108-155-108-69 0-131 44-155 108h-84l-154-59 53-124c1-1 1-2 1-3l92 30c5 2 10 1 14-2 4-3 6-8 6-13v-234c2 1 3 1 4 1h450v233c0 5 2 10 6 13 4 3 9 4 14 2z m155-51l61 121-41 16-54-125c0-1 0-1 0-1z" horiz-adv-x="1000" />

<glyph glyph-name="uniF12F-1" unicode="&#xe834;" d="M427 592l-85 64c-6 4-8 11-6 17 2 6 8 11 15 11h105l32 102c3 7 9 11 15 11 7 0 13-4 15-11l33-102h105c6 0 12-5 14-11 2-6 0-13-5-17l-85-64 32-103c2-6 0-13-6-17-2-2-5-3-9-3-3 0-6 1-9 3l-85 63-84-63c-6-4-13-4-19 0-5 4-8 11-6 17z m40 60h-69l57-41c5-4 7-11 5-18l-21-67 55 41c6 4 13 4 19 0l55-41-21 67c-2 7 0 14 5 18l56 41h-69c-7 0-13 5-15 11l-21 67-21-67c-2-6-8-11-15-11z m451-123c-2-27-3-41-4-43 0 0 0-15-4-39 56 4 59 35 59 36 0 9 7 15 16 15 9 0 15-7 15-16 0 0-3-63-95-66-4-23-11-52-20-83 49-2 55 26 56 27 1 8 10 14 18 12 8-2 14-10 12-18 0-1-10-52-81-52-5 0-10 0-15 1-9-27-19-54-33-82 57-9 66 21 67 22 2 9 11 14 19 12 8-3 13-11 11-19 0-1-12-48-77-48-10 0-22 1-34 4-15-27-31-54-51-79 46-19 62 5 63 6 4 7 14 9 21 5s10-14 6-21c0 0-17-29-58-29-14 0-31 4-52 13-49-58-114-110-200-144 36-6 74-9 114-9 9 0 16-7 16-16s-7-15-16-15c-64 0-120 8-171 22-51-14-107-22-171-22-9 0-16 7-16 15s7 16 16 16c41 0 78 4 113 10-85 34-150 85-199 143-20-9-38-13-52-13-41 0-58 29-58 29-4 7-1 17 6 21 8 5 17 2 21-5 1-2 17-25 63-6-19 25-36 52-50 79-13-3-25-4-35-4-65 0-77 47-77 48-2 8 3 17 12 19 8 2 16-3 18-12 1-1 10-31 67-22-13 28-24 55-33 82-5-1-10-1-15-1-71 0-81 51-81 52-2 8 4 17 12 18 9 2 17-4 19-12 0-2 7-29 55-27-9 31-15 59-20 83-92 3-95 66-95 66 0 9 7 16 15 16 9 1 16-6 16-15 0-2 3-32 59-36-4 25-4 40-4 41-1 0-2 15-4 41-80 7-82 65-82 65 0 9 7 16 15 16 9 0 16-6 16-15 0-2 3-29 50-35 0 23 0 50 2 82-81 8-83 65-83 66 0 8 7 15 15 16 9 0 16-7 16-15 0-2 3-31 54-36 0 5 0 11 1 16 0 9 8 15 16 15 9-1 15-9 15-17-1-5-1-9-1-14 52 5 55 34 55 36 1 8 7 15 16 14 9 0 15-7 15-15 0-1-2-61-88-66-1-33-2-60-1-83 55 4 58 35 58 36 1 9 7 15 16 15 9 0 15-7 15-16 0 0-2-60-88-66 1-24 3-37 3-37 0-1 1-17 4-43 48 7 50 34 50 35 1 9 7 16 16 15 9 0 15-7 15-16 0 0-2-54-76-64 5-23 11-51 20-81 55 13 52 45 52 45-2 8 4 16 13 18 8 1 16-5 17-14 1 0 8-58-73-78 9-26 20-53 33-79 44 16 40 42 40 44-1 8 4 16 13 18 8 1 16-4 18-13 0 0 9-51-57-77 15-27 31-52 48-74 47 30 33 58 33 58-4 8-1 17 7 21 8 4 17 1 21-6 0-1 26-52-41-97 61-71 138-120 229-146 101 29 175 83 230 146-65 45-40 96-40 97 4 7 14 10 21 6 8-4 11-13 7-21 0-1-12-28 32-57 18 23 34 48 48 73-64 26-56 77-55 77 1 9 9 14 18 13 8-2 14-10 12-19 0-1-3-27 39-43 13 27 24 53 33 79-80 20-72 78-72 78 1 9 9 15 17 14 9-2 15-10 14-18 0-1-3-32 51-44 9 29 15 57 20 80-74 10-76 64-76 64 0 9 7 16 15 16 9 0 16-6 16-15 0-1 3-28 50-35 3 25 4 40 4 41 0 1 2 15 3 39-86 6-88 66-88 66 0 9 7 16 15 16 10 0 16-6 16-15 0-1 3-32 58-36 1 23 1 50-1 83-86 5-88 65-88 66 0 8 7 15 15 16 9 0 16-7 16-16 0-1 3-30 55-35 0 5 0 9-1 14 0 8 6 16 15 16 8 1 16-5 17-14 0-5 0-11 1-16 50 5 53 34 53 36 0 8 7 15 16 14 9 0 15-7 15-15 0-1-2-58-83-66 2-32 2-59 2-82 47 6 50 34 50 35 0 9 7 15 16 15 9 0 15-7 15-16 0 0-2-58-82-65z" horiz-adv-x="1000" />

<glyph glyph-name="uniF126-1" unicode="&#xe835;" d="M840 38c9 0 16-7 16-16v-156c0-9-7-16-16-16h-562c-9 0-16 7-16 16v156c0 9 7 16 16 16h56l-18 75c-8 33 3 68 29 90 51 44 137 133 137 242 0 6 0 12 0 16-16-21-40-49-73-49-39 0-55 12-68 22-10 8-18 13-39 13-25 0-38-6-51-12-12-6-26-13-45-4-27 14-53 78-60 97-1 1-1 3-2 5 0 3-1 34 17 54 9 9 20 15 34 15 35 1 151 60 163 111 5 24 20 43 41 55 32 18 77 18 103 10 1-1 1-1 2 0 12 6 25 40 30 60 2 7 8 12 14 12 7 1 13-3 16-10l32-79c26-1 90-8 127-60 4-5 10-12 16-20 61-72 218-261 15-643h86z m-494 83l20-83h353c47 85 75 160 91 226h-86c-8 0-15 7-15 16 0 9 7 16 15 16h92c4 22 7 44 8 64-2-1-3-1-5-1h-95c-8 0-15 7-15 15 0 9 7 16 15 16h95c2 0 4 0 6-1-1 23-3 44-6 64 0 0 0 0 0 0h-95c-8 0-15 7-15 16 0 9 7 16 15 16h89c-7 25-15 47-25 68h-94c-8 0-15 7-15 15s7 16 15 16h78c-20 33-41 58-56 77-8 8-14 16-18 22-36 51-110 47-111 47-7-1-13 3-15 9l-22 52c-7-16-18-33-31-40-9-5-18-6-27-3-16 5-52 7-78-7-14-8-22-19-26-35-16-69-147-134-192-135-7 0-10-3-12-5-7-8-8-22-8-29 13-34 34-72 44-78 4-2 6-1 18 4 13 6 32 16 64 16 32 0 46-11 58-20 11-9 21-16 49-16 21 0 39 25 52 42 11 15 20 28 35 23 15-5 17-24 17-63 0-121-93-219-148-266-17-15-24-37-19-59z m478-240v125h-531v-125h531z m-361 779c8 0 15-7 15-16 0-9-7-16-15-16h-34c-9 0-16 7-16 16s7 16 16 16h34z" horiz-adv-x="1000" />

<glyph glyph-name="uniF12D-1" unicode="&#xe836;" d="M984 194c9 0 16-7 16-16v-219c0-8-7-15-16-15h-281-406-281c-9 0-16 7-16 15v282c0 8 7 15 16 15h265v110c0 8 7 15 16 15h406c9 0 16-7 16-15v-172h265z m-953 31v-250h250v250h-250z m282 125v-375h375v375h-375z m656-375v188h-250v-188h250z m-528 605l-72 53c-6 4-8 11-6 17s8 11 15 11h89l27 85c2 6 8 10 15 10 7 0 13-4 15-10l28-85h89c6 0 12-5 15-11 2-6-1-13-6-17l-72-53 27-84c2-7 0-14-5-18-3-2-6-3-10-3-3 0-6 1-9 3l-72 52-72-52c-5-4-13-4-18 0-6 4-8 11-6 18z m37 50h-52l42-31c6-4 8-11 6-18l-16-49 42 30c3 2 6 3 9 3 3 0 7-1 9-3l43-30-16 49c-2 7 0 14 5 18l43 31h-53c-7 0-13 4-15 10l-16 50-16-50c-2-6-8-10-15-10z" horiz-adv-x="1000" />

<glyph glyph-name="uniF11E-1" unicode="&#xe837;" d="M123-25c34 0 62-28 62-63 0-34-28-62-62-62-35 0-63 28-63 62 0 35 28 63 63 63z m0-95c18 0 32 15 32 32 0 18-14 33-32 33s-32-15-32-33c0-17 14-32 32-32z m815-20c-1-1-1-2-2-2-1-1-1-2-2-2-1-1-2-2-3-2-1-1-2-1-3-1 0 0-1-1-1-1-1 0-2 0-3 0h0-175c-9 0-16 7-16 16s7 15 16 15h48l-20 235c0 2 0 5 0 7l67 206-119 253-26-171c-1-5-4-9-8-11l-159-96c-3-2-6-3-8-3-2 0-3 1-4 1l-125-441c0 0 0 0 0 0l0 0c-2-7-8-12-15-12h-53c-34 0-63 25-70 58 0 0 0 0 0 0-3 16 2 33 12 45 10 12 26 20 42 20h83l99 350c-1 3-1 6 0 9l66 176c0 2 2 4 3 5l134 132-14 30c-8-2-15-3-23-3-10 0-20 1-30 5-46 17-70 67-54 113 9 23 25 40 46 51 22 10 46 11 68 3 22-8 40-24 50-46s11-45 3-68c-6-17-17-31-32-42l163-347c2-4 2-7 1-11 0 0 1-1 1-1 0 0 0 0 0-1v0 0l21-219 43-240c1 0 0 0 0-1 1 0 1-1 1-1 0-1-1-1-1-2 0-1 0-2 0-3-1-1-1-2-1-3z m-298 848c29-11 62 5 73 34 5 14 4 30-3 44-6 13-17 24-32 29h0c-6 2-13 3-19 3-8 0-17-1-24-5-14-7-25-18-30-32-10-30 5-63 35-73z m-352-793c4-19 20-32 39-32h41l16 59h-73c-7 0-13-3-18-8-4-5-6-12-5-19 0 0 0 0 0 0z m380 510l28 177-109-108-57-153z m141-307l20-235h76l-40 223-14 144z" horiz-adv-x="1000" />

<glyph glyph-name="uniF127-1" unicode="&#xe838;" d="M500 850c276 0 500-224 500-500s-224-500-500-500-500 224-500 500 224 500 500 500z m0-715c119 0 215 96 215 215s-96 215-215 215c-119 0-215-96-215-215s96-215 215-215z m241 268c3-17 5-35 5-53 0-18-2-35-5-51h218c3 0 5-1 7-2 2 18 3 35 3 53 0 18-1 36-3 54-2-1-5-1-7-1h-218z m220 31c-35 192-187 344-379 378 0-1 0-1 0-1v-229c69-24 124-79 149-148h228c1 0 1 0 2 0z m-410 382c-16 2-34 3-51 3-18 0-36-1-54-3 0-2 0-3 0-5v-221c18 4 36 6 54 6 17 0 34-2 51-5v220c0 2 0 3 0 5z m-136-5c-191-35-341-186-376-377h230c0 0 0 0 0 0 25 68 78 122 146 147v230z m-381-513c1 0 3 1 4 1h221c-3 16-5 33-5 51 0 18 2 36 6 53h-222c-1 0-2 0-4 0-2-17-3-35-3-53 0-18 1-35 3-52z m5-31c34-191 185-343 376-378 0 0 0 1 0 1v229c-68 25-122 80-147 148h-229z m406-383c18-2 37-3 55-3 18 0 35 1 52 3-1 2-1 4-1 6v219c-17-3-34-5-51-5-18 0-36 2-54 6v-220c0-2 0-4-1-6z m136 4c194 34 346 187 380 380 0 0-1-1-2-1h-227c-25-69-80-124-150-149v-228c0-1 0-1-1-2z" horiz-adv-x="1000" />

<glyph glyph-name="uniF10C-1" unicode="&#xe839;" d="M500 850c276 0 500-224 500-500s-224-500-500-500-500 224-500 500 224 500 500 500z m0-969c259 0 469 211 469 469s-210 469-469 469-469-210-469-469 211-469 469-469z m-61 751c5-18 2-37-7-53-10-16-25-28-43-33-6-1-12-2-18-2-12 0-24 3-35 9-17 10-28 25-33 43-5 18-2 37 7 53 9 17 25 28 43 33 18 5 37 2 53-7 16-9 28-24 33-43z m-34-37c5 9 6 19 4 29-3 10-10 19-19 24-6 4-12 5-19 5-3 0-7 0-10-1l0 0c-10-3-19-9-24-18-5-9-7-20-4-30 3-10 9-18 18-24 9-5 20-6 30-3 10 2 18 9 24 18z m158-143c-6-17-18-32-35-41-10-5-21-8-32-8-7 0-14 1-21 4-18 5-33 18-41 34-9 17-11 36-5 54 6 18 18 32 34 41 17 9 36 10 54 5 18-6 33-18 41-35 9-17 11-36 5-54z m-49-13c9 5 16 13 19 23 3 10 2 20-2 30v0c-5 9-13 16-23 19-4 1-8 2-12 2-6 0-12-2-18-5-9-5-16-13-19-23-3-10-3-20 2-29 5-10 13-16 23-20 10-3 21-2 30 3z m25 146c-16 9-28 24-33 42-10 38 12 76 50 86 18 5 37 3 53-7 16-9 28-24 33-42 10-38-12-76-50-86-6-2-12-3-18-3-12 0-24 3-35 10z m25 98c-21-5-33-27-28-48 3-10 9-18 18-23 10-6 20-7 30-4 21 5 33 27 28 48-3 10-9 18-18 23-10 6-20 7-30 4z m289-445c8-3 12-12 9-20-55-139-178-225-329-229h0c-8 0-15 7-16 15 0 9 7 16 16 16 137 4 250 82 300 209 3 8 12 12 20 9z" horiz-adv-x="1000" />

<glyph glyph-name="uniF101-2" unicode="&#xe83a;" d="M798 187c4-4 5-10 3-15 1-1 1-2 1-4 0-158-126-287-282-294v-8c0-9-7-16-16-16-9 0-16 7-16 16v8c-160 2-290 133-290 294 0 2 0 3 1 4-2 5-1 11 4 15 6 6 16 6 22 0l53-55c6-6 6-16 0-22-3-3-7-4-11-4-4 0-8 1-11 4l-25 25c16-128 125-228 257-230v591h-108c-9 0-16 7-16 16s7 15 16 15h108v144c-42 8-74 45-74 89 0 50 40 90 90 90 50 0 90-40 90-90 0-44-32-81-74-89v-144h108c9 0 16-7 16-15s-7-16-16-16h-108v-590c128 5 233 104 249 229l-24-25c-3-3-8-4-12-4-4 0-7 1-10 4-7 6-7 16-1 22l53 55c6 6 16 6 23 0z m-353 573c0-33 27-59 59-59s59 26 59 59c0 32-26 59-59 59s-59-27-59-59z" horiz-adv-x="1000" />

<glyph glyph-name="uniF100" unicode="&#xf100;" d="M490 636c-5 0-10 2-14 6-8 8-8 20 0 28l90 90c7 8 20 8 28 0 8-8 8-20 0-28l-90-90c-4-4-9-6-14-6z m87-95c-8 8-8 20 0 28l101 102c8 7 21 7 28 0 8-8 8-21 0-29l-101-101c-4-4-9-6-14-6-5 0-10 2-14 6z m164 145c-5 0-10 1-14 5-8 8-8 21 0 28l44 44c8 8 20 8 28 0 8-7 8-20 0-28l-44-44c-4-4-9-5-14-5z m253 70c8-7 8-20 0-28l-288-288c-4-4-9-6-14-6-5 0-10 2-14 6-8 8-8 20 0 28l288 288c8 8 20 8 28 0z m-371-490c0 0 0 0 0-1 6-88-25-175-86-238-1-2-3-3-4-4-59-60-139-92-221-92-8 0-15 0-23 1-69 5-132 31-183 77-5 3-9 8-15 14-53 52-85 122-90 196 0 0 0 0 0 0 0 1 0 1 0 1-7 91 26 180 90 244 4 3 7 6 10 9 63 58 148 87 234 81 0 0 1 0 1 0 0 0 0 0 0 0 74-6 144-38 197-90 5-6 10-11 14-16 45-51 71-113 76-181 0-1 0-1 0-1z m-503 170c-52-52-81-122-80-195 18 0 35 1 53 5l-1 3c-4 11 1 22 12 26 10 3 21-2 25-12l2-7c17 6 33 13 48 22l-2 3c-7 8-6 21 3 28 8 7 21 6 28-3l4-5c6 4 12 9 17 15 3 2 4 3 5 4 7 7 13 13 18 20l-3 2c-10 6-13 18-7 27 5 10 18 13 27 7l6-3c9 15 17 31 23 47l-4 1c-11 2-18 13-16 23 2 11 12 18 23 16l8-1c4 18 5 37 5 56-1 0-1 0-2 0-68 0-134-25-184-72-3-2-6-5-8-7z m-1-385c4-5 8-8 13-12 39-35 87-57 138-65 0 21 2 42 7 62l-10 4c-11 4-16 15-13 25 4 11 15 16 26 12l7-2c7 21 17 41 29 61l-8 6c-9 7-10 20-3 28 7 9 19 10 28 3l6-5c5 7 10 12 15 18 2 2 5 5 8 8 8 8 17 16 27 24l-5 9c-6 9-3 22 7 27 9 6 21 3 27-7l4-6c19 11 40 20 61 27l-2 11c-2 11 5 21 16 23 11 2 21-5 23-16l2-7c19 4 39 6 59 6-8 51-30 98-64 137-4 5-8 9-12 13-41 41-94 68-151 77 0-21-2-41-6-61l9-1c10-2 17-13 15-23-1-10-10-17-19-17-1 0-3 0-4 1l-11 2c-8-21-17-41-29-61l8-4c10-6 13-18 8-28-4-6-11-9-18-9-3 0-7 1-10 2l-10 7c-8-10-16-19-24-28-2-2-5-4-7-6-6-5-12-11-18-16l6-7c6-9 5-22-3-28-4-3-8-5-13-5-6 0-11 3-15 7l-8 10c-19-12-39-21-60-28l3-10c3-10-2-21-12-25-3-1-5-1-7-1-8 0-16 5-19 13l-4 12c-21-5-42-7-63-7 9-57 35-109 76-150z m389 3c49 51 76 120 76 191-18 0-37-2-55-5l2-9c2-11-6-21-16-23-2-1-3-1-4-1-9 0-18 7-20 17l-1 5c-16-6-33-13-48-23l5-7c5-10 2-22-7-28-4-1-7-2-10-2-7 0-14 3-18 9l-3 5c-7-5-13-11-20-18-2-2-4-3-5-5-5-6-10-11-14-17l6-5c9-7 10-20 3-28-4-5-9-8-15-8-5 0-9 2-13 5l-4 3c-9-15-17-31-22-48l8-3c10-4 16-15 12-26-3-8-10-13-19-13-2 0-4 0-6 1l-6 2c-3-17-4-35-4-52 72-1 142 27 194 79l2 2c1 1 1 1 2 2z" horiz-adv-x="1000" />

<glyph glyph-name="uniF101" unicode="&#xf101;" d="M611 530c60-61 97-141 103-227 8-104-30-206-104-279-3-4-7-8-12-12-64-60-151-95-240-95-9 0-17-1-26-1h0 0c0 0-1 2-1 2-85 6-166 46-226 107-5 5-11 11-17 17-51 58-81 131-87 209 0 0 0 0 0 0 0 0 0 1 0 1-7 101 29 201 99 273 2 2 3 4 5 6 74 73 175 111 279 103 0 0 0 0 0 0 1 0 1 0 1 0 78-6 149-36 208-87 0 0 0 0 0 0 0 0 0 0 0 0 0 0 0-1 1-1 6-5 12-11 17-16z m71-210c-13 70-43 136-93 186-1 1-2 2-4 3-60-77-125-152-195-223 17-17 33-35 49-52 67 58 154 89 243 86z m-578-243c83 64 163 134 238 209-3 3-6 7-9 10-12 12-26 25-41 40-67-65-156-101-248-101-3 0-5 0-7 0 8-58 31-112 67-158z m212 284c15-15 29-29 41-41 3-3 6-6 9-9 69 70 133 144 193 220-46 37-100 59-158 67 1-87-29-172-85-237z m50 240c-3 0-6 0-9 0-81 0-158-31-218-86 51-40 102-84 151-131 51 61 78 138 76 217z m-251-110c-54-61-82-140-80-222 86-2 170 30 232 90-50 47-101 91-152 132z m12-440c0-1 1-1 2-2 50-50 115-82 185-92-1 94 34 185 100 254-16 17-32 34-48 51-76-76-156-146-239-211z m222-96c78-3 155 24 215 74-39 53-82 105-127 156-59-63-90-145-88-230z m242 96c61 63 91 147 94 235-81 3-161-25-223-78 45-51 89-104 129-157z m-32 618c-4 0-9 2-12 5-7 7-7 18 0 25l78 77c7 7 17 7 24 0 7-6 7-17 0-24l-78-78c-3-3-7-5-12-5z m75-82c-6 7-6 18 0 25l88 87c7 7 18 7 24 0 7-6 7-17 0-24l-87-88c-4-3-8-5-12-5-5 0-9 2-13 5z m142 125c-4 0-8 2-12 5-6 7-6 18 0 25l38 37c7 7 18 7 25 0 6-6 6-17 0-24l-38-38c-4-3-8-5-13-5z m219 61c7-6 7-17 0-24l-249-249c-4-3-8-5-12-5s-9 2-12 5c-7 7-7 18 0 24l249 249c6 7 17 7 24 0z" horiz-adv-x="1000" />

<glyph glyph-name="uniF102" unicode="&#xf102;" d="M609 527c61-60 98-140 103-226 2-28 1-56-3-83 0 0 0 0 0-1-12-74-47-141-100-194l-1-1c-4-4-7-7-11-10-27-25-59-46-94-62-1 0-1-1-2-1-45-20-94-30-144-30-9 0-18 0-27 1-53 4-105 19-151 46-27 16-52 35-75 57-6 7-11 12-16 18-21 24-40 52-54 82-19 40-30 83-33 127l-1 12c-3 97 33 192 100 261 1 2 3 5 5 6 20 20 41 39 64 52 58 37 125 56 194 56h0c7 0 13-3 20-3 43-3 84-16 123-34 31-15 60-34 86-57 6-4 12-10 17-16z m63-304c5 25 13 50 1 76v0c0 77-36 150-90 204-5 6-8 10-13 14-24 22-50 39-79 52-35 16-72 25-110 28-6 1-12 1-18 1-2 0-5 0-7 0-60 0-119-17-169-48-21-13-40-28-58-46-1-1-2-2-3-3 0-1-1-1-1-1-62-64-94-148-90-236l0-12c3-40 13-78 30-114 13-27 29-52 49-75 4-5 9-10 15-16 20-20 42-37 67-51 42-24 89-39 137-42 52-4 105 5 153 26 0 0 1 0 1 1 32 14 62 33 88 57 3 3 6 5 8 8l1 1c48 48 79 109 89 175 0 1-1 1-1 1z m-112 443c-4 0-9 2-12 5-7 7-7 18 0 25l78 77c6 7 17 7 24 0s7-17 0-24l-78-78c-3-3-7-5-12-5z m75-82c-7 7-7 18 0 25l88 87c6 7 17 7 24 0 7-6 7-17 0-24l-88-88c-3-3-7-5-12-5-4 0-8 2-12 5z m142 125c-4 0-9 2-12 5-7 7-7 18 0 25l38 37c6 7 17 7 24 0 7-7 7-17 0-24l-38-38c-3-3-8-5-12-5z m218 61c7-6 7-17 0-24l-249-249c-3-3-7-5-12-5-4 0-9 2-12 5-7 7-7 18 0 25l249 248c6 7 17 7 24 0z m-521-255c23-23 23-61 0-85-12-11-27-17-43-17-16 0-31 6-42 17-23 24-23 62 0 85 11 11 26 17 42 17 16 0 31-6 43-17z m-25-60c10 10 10 26 0 36-4 5-11 7-18 7-6 0-13-2-18-7-10-10-10-26 0-36 10-10 27-10 36 0z m-170 105c10 2 19-3 21-12 3-9-3-19-12-21-5-2-10-3-15-5-2-1-4-1-6-1-7 0-14 5-16 12-3 8 1 18 10 21 6 3 12 4 18 6z m-72-30c8 4 19 2 23-6 5-9 3-19-6-24-18-11-36-25-51-40-20-20-37-43-49-68-3-6-9-9-16-9-2 0-5 0-7 1-9 5-12 15-8 23 14 29 33 54 55 77 18 18 38 33 59 46z m331-104c16 0 31-6 42-18 24-23 24-61 0-84-11-12-26-18-42-18-16 0-31 6-42 18-23 23-23 61 0 84 11 12 26 18 42 18z m18-78c10 10 10 26 0 36-5 5-11 8-18 8-7 0-13-3-18-8-10-10-10-26 0-36 10-10 27-10 36 0z m-160 43c33 0 60-27 60-60 0-33-27-60-60-60-33 0-60 27-60 60 0 33 27 60 60 60z m0-85c14 0 25 11 25 25 0 14-11 26-25 26-14 0-26-12-26-26 0-14 12-25 26-25z" horiz-adv-x="1000" />

<glyph glyph-name="uniF103" unicode="&#xf103;" d="M561 666c-4 0-9 2-12 5-7 7-7 17 0 24l77 78c7 6 18 6 24 0 7-7 7-18 0-25l-77-77c-3-3-8-5-12-5z m75-82c-7 7-7 17 0 24l87 88c7 6 18 6 24 0s7-18 0-25l-87-87c-3-3-8-5-12-5s-9 2-12 5z m141 124c-4 0-8 2-12 5-6 7-6 18 0 25l38 37c7 7 17 7 24 0 7-6 7-17 0-24l-38-38c-3-3-7-5-12-5z m218 61c7-6 7-17 0-24l-248-248c-3-3-8-5-12-5s-9 2-12 5c-7 7-7 18 0 24l248 248c7 7 17 7 24 0z m-283-460c0-3 0-6 1-8 2-28 0-56-4-83 0-1-1-2-1-2-1-12-5-26-8-38h-1-2s0 4 0 4v0c-11-60-46-114-90-158l1-1c-2-3-5-6-9-9 0 0 0-1-1-1-28-26-60-47-94-62-1 0-1-1-2-1-6-3-11-5-17-7-37-14-76-22-115-23 0 0 0 0 0 0-5 0-9 0-13 0-9 0-17 0-26 1-51 3-102 18-146 43 0 0 0 0 0 0-2 1-3 2-4 2-28 16-53 36-75 58-5 5-9 9-13 14-1 1-2 2-3 3-22 25-40 53-54 83-4 8-8 16-11 24 0 0 0 0 0 0 0 0 0 0 0 0 0 0 0 0 0 0 0 0 0 0 0 0-13 32-21 67-23 102l-2 12c-1 21 1 42 1 62v0c12 36 18 72 34 105 16 34 40 66 66 94 2 1 4 3 5 5 4 3 7 7 11 10 0 0 0 1 0 1 0 0 0 1 0 1 0 0 0 3 0 3h0c17 12 35 25 53 36 39 24 81 44 127 44h0c22 11 45 7 67 7 6 0 13 1 20 1 8-1 16-2 24-3 34-5 67-14 99-29 10-5 21-10 32-16 0-1 0-1 0-1 19-11 37-24 54-39 5-5 11-10 17-16 29-29 53-63 70-100 0 0 0 0 0 0 18-37 28-77 32-118z m-126 194c-6 5-10 10-15 14-10 9-21 17-32 24 0 0-1-1-2-1l-132-54-12-85 90-97 95 9 67 108c-15 30-35 58-59 82z m-407-365l60 54-15 129-73 35-113-46c-2-15-2-31-2-46l1-12c2-29 8-57 17-84z m9 411c-11-7-22-15-33-24 0 0 0 0 0-1l11-138 73-35 121 56 12 90-79 94c-37-8-72-22-105-42z m21-559c39-20 81-32 125-35 5-1 11-1 16-1l70 113-28 73-131 26-61-54z m380 62c36 37 62 82 77 130l-83 98-95-10-65-116 26-68z" horiz-adv-x="1000" />

<glyph glyph-name="uniF104" unicode="&#xf104;" d="M540 471c3-2 5-4 6-6 65-65 99-156 92-248-5-70-32-135-79-188-5-5-9-10-14-15-54-54-126-87-202-92-8-1-16-1-24-1-84 0-166 33-226 94l-2 2c-2 3-5 5-7 8-59 64-90 151-83 239 5 76 38 148 93 202 5 6 10 11 15 15 53 46 117 73 188 78 90 6 178-26 243-88z m57-251c6 81-23 160-80 217l-2 2c-1 0-1 1-2 2-52 50-121 78-193 78-7 0-14 0-21-1-61-4-117-28-163-68-5-4-9-8-14-12l0 0c-47-48-76-110-80-177-6-77 20-153 72-209 0 0 1-1 1-1 2-2 3-4 5-6l2-2c57-57 137-87 218-81 66 5 129 34 176 81 5 4 9 9 13 13 40 46 64 103 68 164z m-119 423c-6 0-11 2-15 6-8 8-8 21 0 29l92 92c8 8 21 8 29 0 8-8 8-21 0-29l-92-92c-4-4-9-6-14-6z m89-97c-8 7-8 20 0 28l104 104c8 8 20 8 28 0 8-8 8-21 0-29l-104-103c-4-4-9-6-14-6s-10 2-14 6z m168 148c-5 0-10 2-14 6-8 8-8 20 0 28l45 45c8 8 20 8 28 0 8-8 8-21 0-29l-45-44c-4-4-9-6-14-6z m259 72c8-8 8-21 0-29l-295-295c-4-4-9-6-15-6s-10 2-14 6c-8 8-8 21 0 29l295 295c8 8 21 8 29 0z m-625-509c18-15 30-37 30-62 0-44-36-80-79-80-44 0-80 36-80 80 0 25 12 47 30 62-10 11-16 26-16 43 0 36 29 66 66 66 36 0 65-30 65-66 0-17-6-32-16-43z m-75 43c0-14 12-25 25-25 14 0 26 11 26 25 0 14-12 25-26 25-13 0-25-11-25-25z m26-144c21 0 38 17 38 39 0 21-17 39-38 39-22 0-39-18-39-39 0-22 17-39 39-39z m-72 295c5-10 0-22-10-27l-4-1c-3-2-6-2-8-2-8 0-16 4-19 12-5 10 0 22 10 27l4 2c10 4 22-1 27-11z m-84-25c8 7 21 6 28-3 8-9 6-21-2-29-32-26-54-61-65-101-2-9-10-15-19-15-2 0-4 0-6 0-11 3-17 15-14 25 13 48 40 90 78 123z" horiz-adv-x="1000" />

<glyph glyph-name="uniF105" unicode="&#xf105;" d="M742 681c-5 0-10 2-14 6-8 7-8 20 0 28l43 44c8 7 21 7 28 0 8-8 8-21 0-28l-43-44c-4-4-9-6-14-6z m-251-49c-5 0-10 2-14 5-8 8-8 21 0 28l90 90c7 8 20 8 28 0 7-8 7-20 0-28l-90-90c-4-4-9-5-14-5z m87-95c-8 7-8 20 0 28l101 101c8 8 20 8 28 0 8-8 8-20 0-28l-101-101c-4-4-9-6-14-6-5 0-11 2-14 6z m-57-81c121-121 154-286 73-367 0 0 0 0 0 0l-2-1c0-1 0-1 0-1 0 0 0 0 0 0l-107-107c0 0 0 0 0 0-30-30-72-44-119-44-79 0-172 41-248 117-122 122-155 286-73 368v0l108 108c0 0 0 0 0 0 82 81 247 49 368-73z m-28-28c-69 69-152 107-220 107-37 0-69-11-92-34-30-30-40-79-28-136 13-61 49-123 101-175 92-91 211-130 285-92 10 5 18 10 25 17l2 2 0 0c65 66 33 206-73 311z m-347-347c94-94 214-130 286-91-4 0-8-1-12-1-19 0-39 3-60 8-11 2-17 13-15 24 3 11 14 17 24 15 45-11 86-8 117 8-4 0-8-1-12-1-80 0-172 43-248 118-58 58-97 127-112 195-5 23-6 44-5 64-10-18-15-41-15-65-1-11-9-22-20-22h-1c-11 0-19 12-19 23 0 3 0 8 0 11-38-72-2-192 92-286z m848 671c8-8 8-21 0-28l-288-288c-4-4-9-6-14-6-5 0-10 2-14 6-8 7-8 20 0 28l288 288c8 7 20 7 28 0z" horiz-adv-x="1000" />

<glyph glyph-name="uniF106" unicode="&#xf106;" d="M148 273l-25 25c-7 7-7 18 0 25 7 7 18 7 25 0l22-22c14 18 29 35 46 52l-28 28c-6 7-6 18 0 25 7 6 18 6 25 0l27-28c17 17 35 32 53 46l-22 22c-7 7-7 18 0 25 7 7 18 7 25 0l25-25c14 10 29 20 45 30 8 5 19 3 24-6 5-8 2-19-6-24-13-8-26-17-38-26l26-25c7-7 7-18 0-25-4-4-8-5-13-5s-9 1-12 5l-29 29c-18-14-36-29-53-45l36-37c7-6 7-18 0-24-3-4-7-6-12-6s-9 2-12 6l-37 36c-16-17-31-35-45-53l24-24c7-7 7-18 0-25-4-3-8-5-13-5-4 0-9 2-12 5l-20 21c-10-13-18-25-26-38-3-5-9-8-15-8-3 0-6 0-9 2-8 5-11 16-6 24 9 15 20 30 30 45z m401 375c-4 0-9 1-12 5-7 7-7 18 0 25l80 79c6 7 18 7 24 0 7-7 7-18 0-25l-79-79c-4-4-8-5-13-5z m192 30c7-7 7-18 0-24l-49-49c-3-3-8-5-12-5s-9 2-13 5c-6 7-6 18 0 25l49 48c7 7 18 7 25 0z m31 14c-5 0-9 1-13 5-7 7-7 18 0 25l39 38c7 7 18 7 25 0 7-7 7-18 0-25l-39-38c-3-4-8-5-12-5z m223 62c7-7 7-18 0-25l-255-254c-3-4-8-6-12-6s-9 2-13 6c-7 6-7 18 0 24l255 255c7 7 18 7 25 0z m-359-198c18-56 31-115 20-174v0c0-21-2-42-6-64-18-93-61-178-128-246-42-42-91-75-145-99-32-14-66-25-101-31 0 0 0 0 0 0-10-2-20-3-31-4 0-1-1 0-1 0-11-1-22 0-32 0h0c-10 0-19-3-29-3-49 0-98 5-145 20-6 2-10 6-12 11-1 3-3 5-4 8-16 54-22 110-22 166v0c12 21 12 43 12 64v0c11 70 43 136 85 192 14 19 30 37 47 54 68 68 152 113 245 131 1 0 1 1 1 1 10 2 21 5 31 6 11 2 22 5 33 5h0c0 0 0-2 1-2 57 3 110-5 165-22 2 0 4-1 6-2 6-2 9-6 10-11z m-213-5c-1 0-3-1-4-1 21-44 49-83 84-118 35-35 75-64 119-85 0 2 0 3 1 5 0 2 0 4 0 6 1 5 1 11 2 16-37 21-72 46-102 77-31 31-57 65-78 102-5 0-11-1-16-2-2 0-4 0-6 0z m64 7c-1 0-1 0-2 0 18-35 39-56 63-80 24-24 50-47 78-65 0 1 0 2 0 3 0 9 0 18-1 27 0 2 0 3 0 4-1 8-2 17-3 25 0 2 0 4-1 5-1 9-3 18-5 27 0 2 0 4-1 5-2 10-4 19-7 28-9 3-19 6-29 8-1 0-2 1-3 1-29 7-59 12-89 12z m-318-133c-59-59-100-133-118-214 51-23 96-55 136-95 40-40 72-86 96-137 59 13 115 39 164 75 18 13 34 28 50 43 13 14 26 28 37 43 2 2 4 4 6 7 28 38 49 80 64 124 4 13 8 27 11 40-51 24-97 56-137 96-40 40-71 86-95 136-70-16-135-48-190-95-8-8-16-15-24-23z m73-454c2 1 3 1 5 1-21 44-50 84-85 119-34 35-74 63-118 84 0-1 0-3-1-5 0-2 0-4 0-6-1-5-1-10-2-15 37-21 71-47 102-78 31-30 56-65 77-102 6 1 11 1 16 2 2 0 4 0 6 0z m-64-3c1 0 2 0 3 0-18 28-39 54-63 78-24 25-50 46-78 63 0-1 0-2 0-3 0-9 0-18 1-27 0-1 0-2 0-3 1-9 2-17 3-26 0-1 0-3 1-5 1-9 3-17 4-26 1-2 1-4 2-6 2-9 4-18 7-27 9-3 18-5 27-7 2-1 4-1 5-1 9-2 18-4 27-5 2-1 3-1 4-1 9-1 18-2 28-3 0 0 1 0 1 0 10-1 19-1 28-1z" horiz-adv-x="1000" />

<glyph glyph-name="uniF107" unicode="&#xf107;" d="M541 470c1-1 3-2 5-4 65-66 92-157 92-249v0c0-1 0-1 0-1 0 0 0-1 0-1-6-69-33-134-79-186-4-4-9-10-15-15-53-54-125-87-202-92 0 0 0-1 0-1-8 0-16 0-24 0-84 0-165 33-225 93-4 4-7 7-10 11-59 64-83 151-83 239v0 0 0 0c0 0 0 1 0 1 0 0 0 0 0 0 6 76 39 147 93 202 5 5 10 9 16 14 52 46 116 73 186 78 0 0 0 0 0 0 0 0 1 0 1 0 0 0 0 0 0 0 90 6 180-26 245-89z m-27-31c0 1-1 1-1 2-53 51-123 79-196 78-1-74 28-146 81-200 2-2 4-4 7-6 52-49 122-76 193-75 0 74-29 146-82 199 0 1-1 2-2 2z m-393-396c54-53 125-82 200-82 1 72-27 142-76 195-1 0-1 0-2 1-1 1-2 3-3 4-53 53-125 82-200 82 0-71 26-139 73-191 3-4 6-6 8-9z m407 13c36 40 59 89 67 141-81 0-159 31-218 86-2 2-5 5-7 8-60 60-94 141-94 225-52-8-101-30-141-66-5-4-9-8-13-12-42-42-70-96-79-155 85 0 165-33 225-93 3-2 5-5 7-7 55-59 86-137 87-218 58 9 112 36 154 78 5 4 9 8 12 13z m-51 587c-5 0-10 2-14 6-8 8-8 21 0 29l92 92c8 8 21 8 29 0 8-8 8-21 0-29l-92-92c-4-4-9-6-15-6z m89-97c-8 7-8 20 0 28l104 104c8 8 21 8 29 0s8-20 0-28l-104-104c-4-4-9-6-14-6-6 0-11 2-15 6z m169 148c-5 0-11 2-15 6-8 8-8 21 0 28l45 45c8 8 21 8 29 0 8-8 8-20 0-28l-45-45c-4-4-9-6-14-6z m259 72c8-8 8-20 0-28l-295-296c-4-4-10-6-15-6s-10 2-14 6c-8 8-8 21 0 29l295 295c8 8 21 8 29 0z" horiz-adv-x="1000" />

<glyph glyph-name="uniF108" unicode="&#xf108;" d="M560 668c-4 0-9 2-12 5-7 7-7 17 0 24l78 78c6 6 17 6 24 0s7-18 0-24l-78-78c-3-3-7-5-12-5z m75-82c-7 7-7 17 0 24l88 88c6 6 17 6 24 0 7-7 7-18 0-24l-88-88c-3-3-7-5-12-5s-9 2-12 5z m360 186c7-7 7-18 0-24l-249-249c-3-3-7-5-12-5s-8 2-12 5c-6 7-6 17 0 24l249 249c6 6 17 6 24 0z m-293-406c0 0 3 0 3 0 7-29 13-59 13-89v-2c0-4-2-9-3-14 0-17-5-35-8-53-4-20-10-40-17-59-21-55-56-104-100-142-21-18-44-33-68-46-1 0-1-1-2-1-22-12-46-21-70-27-31-9-62-13-93-13-8 0-16 1-24 1-9 1-19 2-29 3-23 4-45 9-68 17-28 10-55 24-81 42-11 7-21 16-32 25-2 1-4 3-6 5l-3 3c-64 59-103 139-112 224-1 10-2 20-2 30 0 3 0 5 0 7 0 29 3 56 10 82 8 39 24 76 46 110l0 0c0 0 0 0 0 0 15 23 33 45 53 65 4 4 9 8 15 13 20 18 42 33 65 45 0 0 0 0 0 0 0 0 0 0 0 0 14 8 29 14 44 20 32 12 66 19 101 21 7 1 15 1 23 1 72 0 142-22 201-62 11-8 22-16 32-25 21-19 40-39 55-61 1 0 1-1 1-1 26-36 45-76 56-118 0-1 0-1 0-1z m-57-106c11-6 23-12 33-19 1 7 3 15 3 22 1 5 3 8 3 12v2c0 25-5 50-11 74-23 14-50 26-76 35-20 7-39 12-58 15-15 3-19 4-38 5-70 6-141-8-203-41-1 0-1-1-2-1 3-3 5-5 7-8 19-22 40-41 62-58 30 7 59 9 88 9h0c6 0 13 0 20 0 27-1 53-5 82-12 5-2 10-3 15-5 6-1 12-3 18-6 19-6 38-14 57-24z m-27 205c-14 20-31 39-51 56-8 7-16 14-25 20-49 8-98 7-145-4-32-7-63-18-92-33-4-2-8-4-11-6l-3-2c-17-10-33-20-47-32-1-1-3-2-4-3 2-5 4-10 7-16 8-19 18-37 29-53 2 1 3 2 5 3 0 0 1 0 1 0 68 36 145 52 222 46 20-2 26-3 41-6 20-3 41-9 63-16 16-6 32-13 47-20-9 23-21 44-35 65-1 0-1 0-2 1z m-373 115c-11-4-20-9-30-13 1-12 2-24 5-36 0-1 0-2 0-3 2-11 5-22 9-33 14 11 29 22 45 31l3 2c5 2 9 4 13 6 31 17 65 29 99 37 26 5 51 9 77 9-35 13-71 20-109 20-1 0-2 0-3 0-6 0-12-1-17-1-33-2-63-9-92-19z m-112-71c-17-16-31-34-44-52 24-93 81-173 163-224 4-3 8-5 13-8 18-10 36-19 53-26 1 0 2 0 3-1 1 4 3 8 4 12 8 20 14 41 17 62-23 18-45 39-65 62-9 10-18 22-26 34-14 20-26 41-35 63-6 12-11 24-14 35-7 19-12 38-15 56 0 1-1 1-1 1 0 0 0 1 0 1-1 8-3 16-4 24-12-8-24-17-36-27-4-4-9-7-13-12z m-90-158c-6-23-9-48-9-74 0-1 0-2 0-4 1 0 1-1 1-1 0-8 0-15 1-23 25-30 55-57 88-78 1 0 1-1 2-1 3-2 7-5 12-7 41-24 86-40 132-47 1 0 2-1 4-1 4 6 8 11 12 17 7 12 14 24 20 35 0 0 0 0 0 0-19 8-39 17-58 28-6 3-11 7-16 10-78 49-136 123-166 210-10-20-18-42-23-64z m97-313c2-1 4-3 6-4 6-6 13-11 20-17 18 11 35 24 51 38 8 6 16 14 25 23 2 2 4 5 6 7-44 9-87 25-127 48-5 2-10 5-15 9-21 13-41 29-59 45 16-55 47-106 90-146z m58-41c16-10 33-17 50-23 18-7 36-11 54-15 7 6 14 12 22 18 39 34 71 76 94 123 3 6 6 12 8 19 17 41 26 84 28 128 1 5 1 10 1 15 0 4 0 8 0 11-2 0-4 0-6 0-24 0-49-2-73-8-4-23-10-46-19-67-4-12-8-23-14-33-8-17-17-35-29-52-8-12-16-23-24-33-8-9-15-18-23-26-10-10-19-18-27-25-14-12-28-22-42-32z m243-31c21 5 41 13 60 23 27 46 44 97 49 151 1 8 2 16 2 23 1 6 1 10 1 14l0 3c0 26-3 52-8 77-1 2-1 3-1 5-19 5-37 8-55 10 0-4 0-7 0-10 0-6 0-12 0-18-2-47-13-94-31-138-3-8-6-15-9-21-24-50-57-94-99-130 3 0 5 0 7-1 28 0 56 4 84 12z m126 67c40 35 72 79 91 128 5 14 9 29 13 43-14 9-28 18-42 26-16 8-32 15-48 21 4-24 6-47 6-72l0-3c0-5 0-10-1-15 0-7-1-16-2-25-4-39-13-76-28-112 4 3 8 6 11 9z" horiz-adv-x="1000" />

<glyph glyph-name="uniF109" unicode="&#xf109;" d="M961 545c26-62 39-127 39-195 0-67-13-133-39-195-25-59-61-113-107-159-46-46-100-82-159-107-62-26-127-39-195-39-67 0-133 13-195 39-59 25-113 61-159 107-45 46-81 100-107 159-26 62-39 128-39 195 0 68 13 133 39 195 26 59 62 113 107 159 46 46 100 82 159 107 62 26 128 39 195 39 68 0 133-13 195-39 59-25 113-61 159-107 1-2 3-4 4-5 1-1 1-1 1-1 44-45 78-96 102-153z m-482 263c-114-5-220-52-302-133 20-108 57-176 94-243 36-65 70-127 79-217 39-6 82-10 129-11v604z m-437-458c0-3 0-7 0-10 12-10 48-38 108-66 38-17 90-37 157-51-10 75-40 129-73 189-33 60-69 127-91 225-66-81-101-181-101-287z m134-324c9-9 18-18 28-26 12 7 31 18 49 36 39 36 58 79 58 127 0 5 0 11 0 17-9 2-19 4-28 6-55 12-106 30-153 51-36 17-64 34-84 47 14-97 59-187 130-258z m303-134v271c-43 1-85 4-126 10 0-4 0-7 0-10 0-60-25-115-72-159-15-13-29-24-41-31 70-49 152-77 239-81z m42 916v-604c46 1 89 5 128 11 9 90 43 152 79 217 37 67 75 136 94 244-81 81-188 127-301 132z m0-916c86 4 169 32 239 80-12 8-27 19-42 32-47 44-72 99-72 159 0 3 0 6 0 10-40-6-82-9-125-10v-271z m303 134c71 71 116 160 130 257-20-13-48-29-83-46-47-21-99-39-153-51-10-2-20-4-30-6 0-6 0-12 0-17 0-95 78-147 108-163 9 8 19 17 28 26z m134 313c0 3 0 7 0 11 0 106-35 207-101 288-22-98-59-166-92-226-33-60-63-114-73-189 156 32 243 96 266 116z" horiz-adv-x="1000" />

<glyph glyph-name="uniF10A" unicode="&#xf10a;" d="M500 142c35 0 63-28 63-63 0-34-28-62-63-62-34 0-62 28-62 62 0 35 28 63 62 63z m0-84c12 0 21 10 21 21 0 12-9 21-21 21-11 0-21-9-21-21 0-11 10-21 21-21z m188 568c0-28-19-51-44-59 1-5 2-9 2-14 0-28-18-51-43-59 1-5 1-9 1-14 0-27-18-51-43-59 1-5 2-9 2-14 0-34-28-62-63-62-34 0-62 28-62 62 0 5 0 9 1 14-25 8-43 32-43 59 0 5 0 9 1 14-25 8-43 31-43 59 0 5 1 9 2 14-25 8-43 31-43 59 0 35 28 63 62 63 16 0 31-6 42-16 11 10 25 16 41 16 16 0 31-6 42-16 11 10 26 16 42 16 16 0 30-6 41-16 11 10 26 16 42 16 35 0 63-28 63-63z m-146 21c-12 0-21-9-21-21 0-11 9-21 21-21 11 0 21 10 21 21v0c0 12-10 21-21 21z m-42-73c-11 0-21-9-21-21 0-11 10-21 21-21s21 10 21 21c0 12-9 21-21 21z m-62 52v0c0-11 9-21 20-21 12 0 21 10 21 21 0 12-9 21-21 21-11 0-20-9-20-21z m-63-21c12 0 21 10 21 21v0c0 12-9 21-21 21-11 0-21-9-21-21 0-11 10-21 21-21z m42-73c11 0 21 10 21 21 0 12-10 21-21 21s-21-9-21-21c0-11 9-21 21-21z m41-73c12 0 21 10 21 21 0 12-9 21-21 21-11 0-20-9-20-21 0-11 9-21 20-21z m42-72c12 0 21 9 21 20 0 12-9 21-21 21-11 0-21-9-21-21 0-11 10-20 21-20z m42 72c11 0 21 10 21 21 0 12-10 21-21 21-12 0-21-9-21-21 0-11 9-21 21-21z m41 73c12 0 21 10 21 21 0 12-9 21-21 21-11 0-20-9-20-21 0-11 9-21 20-21z m42 73c12 0 21 10 21 21 0 12-9 21-21 21s-21-9-21-21v0c0-11 10-21 21-21z m208 245c12 0 21-9 21-21v-958c0-12-9-21-21-21h-666c-12 0-21 9-21 21v958c0 12 9 21 21 21h666z m-625-42c-11 0-20-9-20-20 0-12 9-21 20-21 12 0 21 9 21 21 0 11-9 20-21 20z m0-916c12 0 21 9 21 20s-9 21-21 21c-11 0-20-9-20-21s9-20 20-20z m584 0c11 0 21 9 21 20s-10 21-21 21c-12 0-21-9-21-21s9-20 21-20z m21 517v320c-7-3-14-4-21-4-35 0-63 28-63 63 0 7 1 14 4 20h-466c3-6 4-13 4-20 0-35-28-63-63-63-7 0-14 1-20 4v-320c6 2 13 4 20 4 35 0 63-28 63-63 0-34-28-62-63-62-7 0-14 1-20 3v-320c6 3 13 4 20 4 35 0 63-28 63-63 0-7-1-14-4-20h466c-3 6-4 13-4 20 0 35 28 63 63 63 7 0 14-1 21-4v320c-7-2-14-3-21-3-35 0-63 28-63 62 0 35 28 63 63 63 7 0 14-2 21-4z m0-59c0 12-10 21-21 21-12 0-21-9-21-21 0-11 9-21 21-21 11 0 21 10 21 21z m-625 0c0-11 9-21 20-21 12 0 21 10 21 21 0 12-9 21-21 21-11 0-20-9-20-21z m604 417c11 0 21 9 21 21 0 11-10 20-21 20-12 0-21-9-21-20 0-12 9-21 21-21z m-709 0c12 0 21-10 21-21v-792c0-11-9-21-21-21-11 0-20 10-20 21v792c0 11 9 21 20 21z m834 0c11 0 21-10 21-21v-792c0-11-10-21-21-21-12 0-21 10-21 21v792c0 11 9 21 21 21z" horiz-adv-x="1000" />

<glyph glyph-name="uniF10B" unicode="&#xf10b;" d="M280 653c46 0 83-37 83-83 0-46-37-83-83-83-22 0-43 8-59 24-16 16-24 37-24 59 0 46 37 83 83 83z m0-125c23 0 42 19 42 42 0 23-19 42-42 42s-42-19-42-42c0-11 5-21 12-29s19-13 30-13z m118 8c46 0 83-38 83-84 0-46-37-83-83-83-22 0-43 9-59 24-16 16-25 37-25 59 0 46 38 84 84 84z m0-125c23 0 41 18 41 41 0 23-18 42-41 42-23 0-42-19-42-42 0-11 4-21 12-29 8-8 19-12 30-12z m118 7c46 0 83-38 83-84 0-46-37-83-83-83-23 0-44 9-59 24-16 16-25 37-25 59 0 46 38 84 84 84z m0-125c23 0 41 18 41 41 0 23-18 42-41 42-23 0-42-19-42-42 0-11 4-21 12-29 8-8 19-12 30-12z m118 7c45 0 83-37 83-83 0-46-38-84-83-84-46 0-84 38-84 84 0 46 38 83 84 83z m0-125c22 0 41 19 41 42 0 23-19 41-41 41-23 0-42-18-42-41 0-23 19-42 42-42z m360-24c6-6 8-15 4-23l-39-96c3-39-10-74-39-102-25-26-56-39-90-39-4 0-8 0-12 0l-96-39c-3-2-5-2-8-2-5 0-11 2-15 6l-147 147c-4 4-6 10-6 15s2 11 6 15l29 29-442 443c-4-4-10-6-15-6-5 0-11 2-15 6l-73 74c-9 8-9 21 0 29 1 1 2 2 3 3l-36 60c-6 10-3 23 7 29 10 6 23 2 29-7l30-51 139 139-51 30c-9 6-13 19-7 29 6 10 19 13 29 7l60-36c1 1 2 2 3 3 8 9 21 9 29 0l74-73c8-8 8-22 0-30l443-442 29 29c4 4 9 6 15 6 5 0 11-2 15-6z m-275-256l35 15c-38 19-65 45-69 49l-74 74-15-15z m185 80c15 24 18 51 7 83-11 32-34 62-50 78l-619 620-147-148 531-531 0 0 88-88c19-20 68-56 116-56 16 0 31 4 45 13l-132 131c-8 8-8 21 0 30 9 8 22 8 30 0z m36 121l15 35-123 123-15-15 74-73c6-6 31-33 49-70z" horiz-adv-x="1000" />

<glyph glyph-name="uniF10C" unicode="&#xf10c;" d="M929 549c11-28 71-184 71-311 0-137-48-246-50-251-3-7-11-12-19-12h-154c-8 0-15 5-19 12-2 5-50 114-50 251 0 127 60 283 71 311l-1 40c-7 13-23 52-23 108 0 35 10 64 30 84 18 18 42 27 69 27 27 0 52-9 70-27 19-20 30-49 30-84 0-56-17-95-24-108z m-115 202c-11-11-18-30-18-54 0-46 14-78 19-88h79c5 10 18 42 18 88 0 24-6 43-18 54-13 13-29 16-40 16-11 0-27-3-40-16z m6-184l1-22c0-3 0-6-2-8 0 0-1-5-4-12h79c-3 7-5 12-5 12-1 2-2 5-2 8l1 22h-68z m97-550c12 31 41 118 41 221 0 84-29 185-49 246h-109c-21-61-50-162-50-246 0-103 29-190 41-221h126z m-383 408c59-59 91-137 91-221 0-83-32-162-91-221-59-59-138-91-221-91s-162 32-221 91c-59 59-92 138-92 221 0 84 33 162 92 221 59 59 137 92 221 92s162-33 221-92z m-30-412c106 105 106 277 0 383-51 51-119 79-191 79s-141-28-192-79c-51-51-79-119-79-192 0-72 28-140 79-191 51-52 119-80 192-80s140 28 191 80z m-29 353c24-24 24-64 0-88-12-12-28-18-45-18s-32 6-44 18c-12 12-18 27-18 44 0 17 6 32 18 44 12 12 28 19 44 19s33-7 45-19z m-30-59c8 8 8 22 0 30-4 4-9 6-15 6-5 0-10-2-14-6-4-4-6-9-6-15 0-5 2-11 6-15 4-4 9-6 14-6 6 0 11 2 15 6z m0-88c24-24 24-64 0-88-12-12-27-19-44-19s-32 7-44 19c-12 11-19 27-19 44 0 16 7 32 19 44 12 12 27 18 44 18 17 0 32-6 44-18z m-29-59c8 8 8 21 0 30-4 3-9 6-15 6-6 0-11-3-15-6-4-4-6-10-6-15 0-6 2-11 6-15 4-4 9-6 15-6 6 0 11 2 15 6z m-89 177c12-12 19-28 19-44 0-17-7-33-19-45-12-11-27-18-44-18-17 0-32 7-44 18-24 25-24 64 0 89 12 12 27 18 44 18 17 0 32-6 44-18z m-29-59c4 4 6 9 6 15 0 5-2 10-6 14-4 4-9 6-15 6-5 0-11-2-15-6-8-8-8-21 0-29 4-4 10-6 15-6 6 0 11 2 15 6z" horiz-adv-x="1000" />

<glyph glyph-name="uniF10D" unicode="&#xf10d;" d="M843 593c0-1 0-1 0-2v-286c0-74-65-167-83-191v-219c0-25-20-45-44-45h-371c-24 0-44 20-44 45v217c-18 16-67 63-85 101l-39 84c-20 42-25 90-14 133 9 36 29 67 56 87v74c0 1 0 1 0 2 1 68 26 132 72 181 46 49 107 76 173 76h134c66 0 127-27 173-76 46-49 71-113 72-181z m-379 215c-38 0-74-10-105-31 43 5 102 11 171 11 71 0 130-6 173-11-31 20-67 31-105 31h-134z m337-503v285c0 0 0 1 0 1 0 50-16 98-45 136-25 5-112 19-226 19-113 0-199-14-224-19-29-38-45-86-45-136 0 0 0-1 0-1v-56c34 8 67 3 96-12 84-45 113-170 114-176 2-11-5-22-16-24-1-1-3-1-4-1-10 0-19 7-21 16 0 2-25 112-93 148-26 14-55 15-88 2-22-14-38-38-46-67-8-34-4-72 11-105l40-84c13-29 55-70 76-89h34c11 0 21-10 21-21 0-12-10-21-21-21h-21v-205c0-2 1-3 2-3h371c1 0 2 1 2 3v205h-21c-11 0-21 9-21 21 0 11 10 21 21 21h31c8 10 21 29 35 53 25 44 38 82 38 110v0z m-241-142l27-27c8-9 8-22 0-30-4-4-10-6-15-6-5 0-11 2-15 6l-27 27-26-27c-5-4-10-6-15-6-6 0-11 2-15 6-8 8-8 21 0 30l27 27-27 26c-8 9-8 22 0 30 8 8 21 8 30 0l26-27 27 27c9 8 22 8 30 0 8-8 8-21 0-30z m0-146l27-27c8-8 8-22 0-30-4-4-10-6-15-6-5 0-11 2-15 6l-27 27-26-27c-5-4-10-6-15-6-6 0-11 2-15 6-8 8-8 22 0 30l27 27-27 27c-8 8-8 21 0 29 8 8 21 8 30 0l26-27 27 27c9 8 22 8 30 0 8-8 8-21 0-29z" horiz-adv-x="1000" />

<glyph glyph-name="uniF10E" unicode="&#xf10e;" d="M938 496c34 0 62-28 62-63v-250c0-34-28-62-62-62v-115l-9-6c-1-1-53-38-110-74-120-76-143-76-152-76h-334c-9 0-32 0-151 76-57 36-110 73-111 74l-8 6v115c-35 0-63 28-63 62v250c0 35 28 63 63 63v103c-2 11-6 72 45 131 31 36 75 64 132 84 68 24 156 36 260 36 104 0 192-12 260-36 57-20 101-48 132-84 51-59 47-120 46-131v-103z m-875-333v291c-12 0-21-9-21-21v-250c0-11 9-20 21-20z m833 440c1 3 6 52-37 101-26 30-64 54-114 71-64 22-146 33-245 33-99 0-182-11-246-33-50-18-88-42-114-72-43-50-36-99-36-100l0-1v-574c17-12 57-39 99-66 104-66 127-70 130-70h334c3 0 27 4 130 70 42 27 82 54 99 66v574z m62-420v250c0 12-9 21-20 21v-291c11 0 20 9 20 20z m-458 375c136 0 234-25 281-72 21-21 32-47 32-74l-1-148-23 3c0 0-24 3-54 3-47 0-82-7-97-19-19-17-29-34-28-53 1-43 50-88 69-102l9-6v-11-104h-375v115l8 6c19 14 68 59 69 102 1 19-8 36-28 53-15 12-50 19-97 19-30 0-54-3-54-3l-23-3v149c-1 26 10 52 31 73 48 47 145 72 281 72z m271-248l0 103c0 15-7 30-20 43-52 53-180 61-251 61-71 0-199-8-251-61-13-13-20-28-20-43v-103c10 1 22 1 36 1 59 0 100-9 123-28 30-25 45-54 44-87-1-30-16-63-45-95-12-14-25-25-33-32v-52h292v52c-8 7-20 18-33 32-29 32-44 65-45 95-1 33 14 62 44 87 23 19 64 28 123 28 14 0 26 0 36-1z m-450 284c-5 4-8 10-8 16v84c0 9 6 17 14 20 3 1 71 21 173 21 102 0 170-20 173-21 9-3 15-11 15-20v-84c0-6-4-12-9-16-4-3-8-4-12-4-2 0-4 0-6 1-23 6-85 19-161 19s-138-13-160-19c-7-2-14-1-19 3z m33 84v-41c30 7 81 15 146 15 65 0 117-8 146-15v41c-29 7-83 16-146 16-63 0-117-9-146-16z" horiz-adv-x="1000" />

<glyph glyph-name="uniF10F" unicode="&#xf10f;" d="M945 581c6-24 8-54 5-90-3-52-15-118-35-188-22-78-52-157-81-215-20-39-39-68-58-89-23-26-47-40-73-44-5-1-11-1-17-1-43 0-94 22-153 68-40 30-69 60-70 61-12 12-18 28-18 44v98c-12 0-21 9-21 21v167c0 11 9 20 21 20v80c0 20 10 39 27 51 5 3 48 33 107 62 81 40 151 61 210 61 46 0 86-13 117-39 19-15 32-38 39-67z m-459-106v-42h42v42h-42z m-6-173c8-8 8-21 0-29-4-4-9-6-15-6h84c-6 0-11 2-15 6-8 8-8 21 0 29 4 4 9 6 15 6v42c-6 0-11 2-15 6-8 8-8 21 0 30 4 4 9 6 15 6h-84c6 0 11-2 15-6 8-9 8-22 0-30-4-4-9-6-15-6v-42c6 0 11-2 15-6z m6-77v-62h42v62h-42z m423 269c4 63-6 103-30 122-23 19-54 29-90 29-125 0-287-111-294-115-4-3-7-8-8-13h66c52 31 156 86 236 86 27 0 48-6 64-19 4-4 18-20 14-87-3-47-14-108-32-172-21-73-48-145-76-200-34-66-58-86-67-87-2 0-4-1-6-1h0c-23 0-60 18-102 51-16 12-29 23-40 33h-57c1-3 3-6 5-9 1-1 29-28 66-57 51-39 95-59 128-59h0c4 0 8 0 11 0 32 5 64 41 99 110 29 57 58 133 79 208 19 68 31 130 34 180z m-339-61c11 0 20-9 20-20v-167c0-12-9-21-20-21v-71c10-9 24-21 39-33 36-27 60-38 72-41 7 7 21 25 41 64 26 52 53 122 73 192 17 62 28 120 31 163 2 34-1 50-3 55-10 6-24 8-34 8-35 0-82-14-136-39-33-16-63-33-83-45v-45z m-48-89c8-8 8-21 0-30-8-8-21-8-30 0-8 9-8 22 0 30 9 8 22 8 30 0z m-327 506c80 0 145-65 145-146v-792c0-34-28-62-62-62-34 0-63 28-63 62v792c0 12-9 21-20 21-12 0-21-9-21-21v-792c0-34-28-62-63-62s-62 28-62 62v792c0 81 65 146 146 146z m-105-196v-108l42-41v107z m0-167v-108l42-41v108z m0-166v-108l42-42v108z m0-167v-108l42-42v108z m42-242v33l-42 42v-75c0-11 10-20 21-20s21 9 21 20z m63 855c34 0 62-28 62-63v-33l41 41c-4 54-49 96-103 96-55 0-100-42-104-96l41-41v33c0 35 28 63 63 63z m104-855v75l-42-42v-33c0-11 9-20 21-20 11 0 21 9 21 20z m0 134v108l-42-42v-108z m0 167v108l-42-42v-108z m0 166v108l-42-41v-108z m0 167v108l-42-42v-108z" horiz-adv-x="1000" />

<glyph glyph-name="uniF110" unicode="&#xf110;" d="M485 21c8 8 22 8 30 0 8-8 8-21 0-30-8-8-22-8-30 0-8 9-8 22 0 30z m494 69c12 0 21-10 21-21v-125c0-12-9-21-21-21h-958c-12 0-21 9-21 21v125c0 11 9 21 21 21h108c-8 32-4 74 14 96 20 23 33 51 40 70h-1c-12 0-21 10-21 21 0 12 9 21 21 21h13c19 99 16 170 12 208h-9c-11 0-20 10-20 21 0 12 9 21 20 21h2c-7 69-34 125-34 125l36 25c8 27 30 48 58 56 0 1 0 1 0 2 0 12 9 21 21 21 11 0 21-9 21-21 0-1 0-1-1-2 28-8 50-29 59-56l36-25s-27-56-34-125h1c12 0 21-9 21-21 0-11-9-21-21-21h-8c-4-38-7-109 12-208h13c11 0 20-9 20-21 0-11-9-21-20-21h-1c8-19 21-47 40-70 18-22 23-64 14-96h158c-1 2-2 5-3 8-5 17-7 37-5 57 2 13 6 30 17 46-3 3-5 8-5 14 0 11 9 20 21 20h3l21 140-31 35c-3 4-5 8-5 14v103c0 12 9 21 21 21h208c11 0 21-9 21-21v-103c0-5-2-10-6-14l-31-35 22-140h3c12 0 21-9 21-20 0-6-2-11-6-15 11-15 15-32 17-45 2-20 1-40-5-57-1-3-2-6-3-8h113z m-334 416v-74l27-30h69 45l26 30v74h-21c0 0 0-1 0-2v-36c0-12-9-21-21-21-11 0-20 9-20 21v36c0 1 0 2 0 2h-42v-38c0-11-9-21-21-21s-21 10-21 21v38h-21v0z m152-271l-20 125h-32-65l-19-125h136z m-161-56c-12-14-16-45-8-69 3-10 8-18 14-20h173c6 2 11 10 15 20 7 24 3 55-9 69-4 5-8 10-12 15h-161c-4-5-8-10-12-15z m-355 536c-20 0-37-15-40-34l7-8 33 33 33-33 7 8c-3 19-20 34-40 34z m-33-101l-25 25c8-24 16-56 19-91h78c3 35 11 67 19 91l-25-25-30 30-3 3-4-3z m3-139c3-54-2-114-14-177h88c-12 63-17 122-14 177 0 12 1 22 2 31h-64c1-9 2-19 2-31z m-76-316c-4-5-9-21-8-39 0-15 4-26 7-30h215c2 4 6 15 7 30 0 18-4 34-9 39-29 35-46 78-52 97h-107c-7-19-24-62-53-97z m783-194v83h-137l0 0h-185l0 0h-236c0 0 0 0 0 0h-237c-1 0-1 0-1 0h-120v-83h916z" horiz-adv-x="1000" />

<glyph glyph-name="uniF111" unicode="&#xf111;" d="M945 795c80-80 50-153 48-156-1-2-2-4-4-6l-545-545c-4-4-9-7-15-7-3 0-5 1-8 2-1 0-35 15-74 25l-252-252c-4-4-10-6-15-6-5 0-11 2-15 6l-59 59c-4 4-6 9-6 15s2 11 6 14l252 252c-10 39-25 74-25 75-3 8-2 17 5 23l545 545c2 2 4 3 6 4 2 1 16 7 38 7 29 0 72-10 118-55h0v0z m-865-895l74 75h-59l-45-45z m116 116l42 42h-59l-42-41h57c1 0 1-1 2-1z m83 84l32 32-29 29-62-61h59z m57 66l22 42-42-22z m620 493c3 11 9 47-27 91l-397-397c-4-4-9-6-14-6-6 0-11 2-15 6-8 8-8 21 0 29l397 397c-29 24-55 29-73 29-8 0-15-1-18-2l-532-532c4-12 11-31 17-53l105 56 0 0c0 0 1 0 1 1 1 0 1 0 2 0 0 0 0 0 0 0 1 0 1 1 2 1 0 0 0 0 0 0 1 0 1 0 2 0 0 0 0 0 0 0 1 0 1 0 2 0 0 0 0 0 0 0 1 0 1 0 1 0 1 0 1 0 1 0 1 0 1 0 1 0 1 0 1 0 1 0 1 0 1 0 1 0 1 0 1-1 1-1 1 0 1 0 1 0 1 0 1 0 1 0 1-1 2-1 2-1 0 0 0 0 0 0 0 0 0 0 0 0 1-1 2-1 2-1 0 0 0-1 1-1 0 0 0 0 1-1 0 0 0 0 0 0 1 0 1-1 1-1 0 0 1 0 1-1 0 0 0 0 1 0 0-1 0-1 0-1 0-1 1-1 1-1 0-1 0-1 1-2 0 0 0 0 0 0h0c0 0 0-1 1-2 0 0 0 0 0-1 0 0 0 0 0-1 0 0 1 0 1-1 0 0 0 0 0-1 0 0 0 0 0-1 0 0 0 0 0-1 0 0 0 0 0-1 0 0 0 0 0-1 0 0 0 0 0-1 0 0 0 0 0-1 0 0 0 0 0 0 0-1 0-1 0-2 0 0 0 0 0 0 0-1-1-1-1-2 0 0 0 0 0-1 0 0 0 0 0-1-1 0-1-1-1-1l0 0-56-104c22-7 41-14 53-18z m-164-476c34 0 65-13 89-36 23-24 36-55 36-89 0-33-13-65-36-88-24-24-55-37-89-37-33 0-65 13-88 37-24 23-37 55-37 88 0 34 13 65 37 89 23 23 55 36 88 36z m59-184c16 16 25 37 25 59 0 15-5 30-12 43-4-3-8-5-13-5-5 0-11 2-15 6-7 8-8 20-1 28-13 7-28 12-43 12-22 0-43-9-59-25-16-16-24-37-24-59 0-15 4-30 11-42 9 6 20 5 28-2 7-8 8-19 2-28 12-7 27-11 42-11 22 0 43 8 59 24z m-62 86c8 8 22 8 30 0 8-8 8-22 0-30l-24-23c-4-4-9-6-15-6-5 0-10 2-14 6-8 8-8 21 0 29z" horiz-adv-x="1000" />

<glyph glyph-name="uniF112" unicode="&#xf112;" d="M915 430c50-23 85-73 85-132v-125c0-81-65-146-146-146h-417-83-250c-11 0-20 9-20 21 0 11 9 21 20 21h148c-22 22-38 51-42 83h-64c-12 0-21 9-21 21 0 11 9 21 21 21h62v104c0 59 35 109 85 132 1 3 2 6 5 8l62 62c4 4 9 6 15 6h312v21c0 12-9 21-20 21h-209c-34 0-62 28-62 63 0 34 28 62 62 62h209c80 0 145-65 145-146v-21h21c6 0 11-2 15-6l63-62c2-2 3-5 4-8z m-248 160c34 0 62-28 62-63v-21h42v21c0 58-47 104-104 104h-209c-11 0-21-9-21-20 0-12 10-21 21-21h209z m-284-125l-20-21h483l-21 21h-33-84-325z m575-292v125c0 57-46 104-104 104h-500c-58 0-104-47-104-104v-122c0-1 0-2 0-3 0-1 0-2 0-2 1-57 47-102 104-102h83 417c58 0 104 46 104 104z m-791 125c0-12-10-21-21-21h-125c-12 0-21 9-21 21 0 11 9 21 21 21h125c11 0 21-10 21-21z m-21 104c-12 0-21 9-21 21 0 12 9 21 21 21h83c11 0 21-9 21-21 0-12-10-21-21-21h-83z m687-21c53 0 78-22 91-40 13-21 14-41 14-43v-125c0-12-10-21-21-21-12 0-21 9-21 21v125c0 1-1 11-8 21-10 14-28 21-55 21-11 0-21 9-21 20 0 12 10 21 21 21z" horiz-adv-x="1000" />

</font>
</defs>
</svg>
